<svg width="172" height="46" viewBox="0 0 172 46" fill="none" xmlns="http://www.w3.org/2000/svg">
<rect x="0.75" y="0.75" width="170.5" height="43.5874" rx="5.92961" stroke="#1F233E" stroke-width="1.5"/>
<path d="M18.4647 38.4078C18.45 38.4078 18.4353 38.4078 18.4059 38.4078C15.9372 38.3931 14.1738 36.1649 12.9248 34.2318C9.73601 29.3178 9.08944 23.1348 11.3965 19.549C12.9395 17.1436 15.4376 15.6532 17.9063 15.6532C19.1847 15.6532 20.184 16.0074 21.0656 16.332C21.771 16.5829 22.3735 16.8042 23.0053 16.8042C23.5637 16.8042 24.0487 16.6124 24.6658 16.3763C25.5181 16.0517 26.5615 15.6532 28.075 15.6532C30.2498 15.6532 32.4834 16.819 34.0411 18.7964C34.2468 19.0472 34.3203 19.3866 34.2615 19.6965C34.2027 20.0212 33.997 20.2868 33.7178 20.4491C32.0573 21.364 31.1462 23.0315 31.2785 24.9203C31.4107 26.8387 32.5863 28.4619 34.3497 29.1259C34.6289 29.2292 34.864 29.4506 34.9815 29.731C35.0991 30.0113 35.0991 30.336 34.9668 30.6016C34.3203 32.0477 33.997 32.7118 33.1594 34.0104C31.7634 36.1648 30 38.3783 27.5901 38.4078C26.5468 38.4078 25.8414 38.0979 25.2242 37.8028C24.6071 37.5224 24.0046 37.3011 23.0494 37.2716C22.0208 37.2716 21.4771 37.5224 20.8452 37.8028C20.1986 38.0979 19.4933 38.4078 18.4647 38.4078ZM17.9063 17.8667C16.1723 17.8667 14.3942 18.9734 13.248 20.7442C11.6904 23.1643 11.7051 28.2848 14.7763 33.0217C15.7315 34.4974 17.0099 36.1796 18.4353 36.1944C18.9643 36.1796 19.361 36.0321 19.9048 35.7959C20.6248 35.4713 21.5212 35.0729 23.0053 35.0581C24.4601 35.0286 25.4006 35.4565 26.1206 35.7959C26.6496 36.0468 27.0023 36.2091 27.546 36.1944C28.9273 36.1796 30.2645 34.3793 31.2932 32.8151C31.8369 31.974 32.1455 31.4427 32.4834 30.6901C30.5143 29.5244 29.2212 27.4732 29.0596 25.0827C28.8979 22.8249 29.809 20.7147 31.4842 19.3128C30.4556 18.3979 29.2359 17.8815 28.0603 17.8815C26.9582 17.8815 26.2235 18.1618 25.4447 18.457C24.7099 18.7374 23.9458 19.0325 22.9906 19.0325C21.9767 19.0325 21.1391 18.7226 20.3162 18.4422C19.5374 18.1323 18.788 17.8667 17.9063 17.8667ZM22.2706 15.3581C22.2265 15.3581 22.1677 15.3581 22.1237 15.3581C21.6093 15.3433 21.1685 14.9597 21.0803 14.4432C20.7717 12.7757 21.3595 10.8573 22.638 9.29312C23.8135 7.86173 25.7533 6.79928 27.4725 6.68122C28.075 6.65171 28.5599 7.05016 28.6334 7.62567C28.8832 9.35218 28.3395 11.241 27.1199 12.82C25.9296 14.3694 24.034 15.3581 22.2706 15.3581ZM26.4292 9.18986C25.6357 9.5145 24.8569 10.0605 24.3426 10.695C23.8576 11.2853 23.4021 12.1117 23.2551 12.9675C24.0487 12.7019 24.8422 12.1707 25.3859 11.4623C25.6798 11.0934 26.2382 10.2376 26.4292 9.18986Z" fill="#1F233E"/>
<path d="M49.9585 16.7782C49.4754 16.7782 49.0439 16.6949 48.664 16.5284C48.2864 16.3619 47.9874 16.1309 47.7669 15.8354C47.5488 15.5376 47.4316 15.1928 47.4152 14.8012H48.5198C48.5338 15.0146 48.6054 15.1999 48.7343 15.357C48.8657 15.5118 49.0369 15.6314 49.2479 15.7158C49.459 15.8002 49.6935 15.8424 49.9515 15.8424C50.2353 15.8424 50.4862 15.7932 50.7043 15.6947C50.9248 15.5962 51.0972 15.459 51.2214 15.2831C51.3457 15.1049 51.4079 14.8997 51.4079 14.6675C51.4079 14.4259 51.3457 14.2137 51.2214 14.0308C51.0995 13.8455 50.9201 13.7001 50.6832 13.5946C50.4487 13.489 50.1649 13.4363 49.8319 13.4363H49.2233V12.5498H49.8319C50.0993 12.5498 50.3338 12.5017 50.5355 12.4055C50.7395 12.3094 50.899 12.1757 51.0139 12.0045C51.1288 11.8309 51.1863 11.6281 51.1863 11.3959C51.1863 11.1731 51.1358 10.9796 51.035 10.8155C50.9365 10.649 50.7958 10.5188 50.6129 10.425C50.4323 10.3312 50.2189 10.2843 49.9726 10.2843C49.7381 10.2843 49.5188 10.3277 49.3148 10.4144C49.1131 10.4989 48.9489 10.6208 48.8223 10.7803C48.6956 10.9374 48.6276 11.1262 48.6183 11.3467H47.5664C47.5782 10.9574 47.6931 10.615 47.9112 10.3195C48.1316 10.024 48.4224 9.79295 48.7836 9.62644C49.1448 9.45993 49.5458 9.37668 49.9867 9.37668C50.4487 9.37668 50.8474 9.46697 51.1828 9.64755C51.5205 9.82579 51.7808 10.0638 51.9637 10.3617C52.149 10.6595 52.2404 10.9855 52.2381 11.3396C52.2404 11.743 52.1279 12.0854 51.9004 12.3668C51.6752 12.6483 51.3751 12.837 50.9998 12.9332V12.9895C51.4782 13.0622 51.8488 13.2522 52.1115 13.5594C52.3765 13.8666 52.5078 14.2477 52.5055 14.7027C52.5078 15.099 52.3976 15.4543 52.1748 15.7686C51.9543 16.0828 51.653 16.3302 51.2707 16.5108C50.8884 16.6891 50.451 16.7782 49.9585 16.7782ZM55.4217 16.7993C55.0793 16.7993 54.7698 16.736 54.493 16.6093C54.2163 16.4803 53.997 16.2939 53.8352 16.05C53.6757 15.8061 53.596 15.5071 53.596 15.153C53.596 14.8481 53.6546 14.5971 53.7719 14.4001C53.8891 14.2031 54.0474 14.0472 54.2468 13.9323C54.4461 13.8173 54.6689 13.7306 54.9152 13.6719C55.1614 13.6133 55.4124 13.5688 55.668 13.5383C55.9916 13.5007 56.2543 13.4703 56.456 13.4468C56.6577 13.421 56.8042 13.38 56.8957 13.3237C56.9872 13.2674 57.0329 13.1759 57.0329 13.0493V13.0247C57.0329 12.7174 56.9461 12.4794 56.7726 12.3105C56.6014 12.1417 56.3458 12.0573 56.0057 12.0573C55.6516 12.0573 55.3725 12.1358 55.1685 12.293C54.9668 12.4477 54.8272 12.6201 54.7498 12.8101L53.7613 12.5849C53.8786 12.2566 54.0498 11.9916 54.2749 11.7899C54.5024 11.5859 54.7639 11.4381 55.0594 11.3467C55.3549 11.2529 55.6656 11.2059 55.9916 11.2059C56.2074 11.2059 56.436 11.2317 56.6776 11.2833C56.9215 11.3326 57.149 11.4241 57.3601 11.5577C57.5735 11.6914 57.7482 11.8825 57.8842 12.1311C58.0202 12.3774 58.0882 12.6975 58.0882 13.0915V16.6797H57.061V15.9409H57.0188C56.9508 16.077 56.8488 16.2106 56.7128 16.342C56.5768 16.4733 56.402 16.5824 56.1886 16.6691C55.9752 16.7559 55.7196 16.7993 55.4217 16.7993ZM55.6504 15.955C55.9412 15.955 56.1898 15.8976 56.3962 15.7826C56.6049 15.6677 56.7632 15.5176 56.8711 15.3324C56.9813 15.1447 57.0364 14.9442 57.0364 14.7308V14.0343C56.9989 14.0718 56.9262 14.107 56.8183 14.1398C56.7128 14.1703 56.592 14.1973 56.456 14.2207C56.32 14.2418 56.1874 14.2618 56.0585 14.2805C55.9295 14.2969 55.8216 14.311 55.7348 14.3227C55.5308 14.3485 55.3443 14.3919 55.1755 14.4529C55.009 14.5139 54.8753 14.6018 54.7745 14.7167C54.676 14.8293 54.6267 14.9794 54.6267 15.167C54.6267 15.4273 54.7229 15.6243 54.9152 15.758C55.1075 15.8893 55.3526 15.955 55.6504 15.955ZM62.9437 11.2763V12.1839H60.527V16.6797H59.4892V11.2763H62.9437ZM64.0554 18.706V11.2763H65.0826V12.1522H65.1705C65.2315 12.0397 65.3194 11.9095 65.4344 11.7618C65.5493 11.614 65.7087 11.485 65.9128 11.3748C66.1168 11.2622 66.3865 11.2059 66.7219 11.2059C67.1581 11.2059 67.5474 11.3162 67.8898 11.5366C68.2322 11.7571 68.5007 12.0749 68.6954 12.49C68.8924 12.9051 68.9909 13.4046 68.9909 13.9885C68.9909 14.5725 68.8935 15.0732 68.6989 15.4907C68.5042 15.9058 68.2369 16.2259 67.8968 16.451C67.5568 16.6738 67.1686 16.7852 66.7324 16.7852C66.4041 16.7852 66.1356 16.7301 65.9268 16.6199C65.7205 16.5097 65.5586 16.3807 65.4414 16.2329C65.3241 16.0852 65.2338 15.9538 65.1705 15.8389H65.1072V18.706H64.0554ZM65.0861 13.978C65.0861 14.3579 65.1412 14.6909 65.2514 14.9771C65.3617 15.2632 65.5211 15.4871 65.7298 15.649C65.9386 15.8084 66.1942 15.8882 66.4967 15.8882C66.811 15.8882 67.0737 15.8049 67.2847 15.6384C67.4958 15.4696 67.6553 15.2409 67.7632 14.9524C67.8734 14.664 67.9285 14.3392 67.9285 13.978C67.9285 13.6215 67.8746 13.3014 67.7667 13.0176C67.6611 12.7339 67.5017 12.5099 67.2882 12.3457C67.0772 12.1816 66.8133 12.0995 66.4967 12.0995C66.1919 12.0995 65.9339 12.178 65.7228 12.3352C65.5141 12.4923 65.3558 12.7116 65.2479 12.993C65.14 13.2744 65.0861 13.6028 65.0861 13.978ZM70.6504 18.706C70.4933 18.706 70.3502 18.6931 70.2212 18.6673C70.0922 18.6438 69.9961 18.618 69.9328 18.5899L70.1861 17.728C70.3784 17.7796 70.5496 17.8019 70.6997 17.7948C70.8498 17.7878 70.9823 17.7315 71.0972 17.626C71.2144 17.5204 71.3176 17.3481 71.4067 17.1089L71.5369 16.75L69.5599 11.2763H70.6856L72.054 15.4696H72.1103L73.4787 11.2763H74.608L72.3812 17.4008C72.278 17.6823 72.1467 17.9203 71.9872 18.115C71.8277 18.312 71.6377 18.4597 71.4173 18.5582C71.1968 18.6567 70.9412 18.706 70.6504 18.706ZM75.2764 15.2514H76.3528C76.3669 15.4719 76.4666 15.6419 76.6518 15.7615C76.8394 15.8811 77.0822 15.9409 77.38 15.9409C77.6825 15.9409 77.9405 15.8765 78.1539 15.7475C78.3674 15.6161 78.4741 15.4133 78.4741 15.1389C78.4741 14.9747 78.433 14.8317 78.3509 14.7097C78.2712 14.5854 78.1575 14.4893 78.0097 14.4212C77.8643 14.3532 77.6919 14.3192 77.4926 14.3192H76.6131V13.4925H77.4926C77.7904 13.4925 78.0132 13.4245 78.161 13.2885C78.3087 13.1525 78.3826 12.9825 78.3826 12.7784C78.3826 12.558 78.3029 12.3809 78.1434 12.2472C77.9863 12.1112 77.767 12.0432 77.4855 12.0432C77.1994 12.0432 76.9614 12.1077 76.7714 12.2367C76.5815 12.3633 76.4818 12.5275 76.4724 12.7292H75.41C75.4171 12.4266 75.5085 12.1616 75.6844 11.9341C75.8627 11.7043 76.1019 11.5261 76.4021 11.3994C76.7046 11.2704 77.0482 11.2059 77.4328 11.2059C77.8338 11.2059 78.1809 11.2704 78.4741 11.3994C78.7672 11.5284 78.9935 11.7067 79.153 11.9341C79.3148 12.1616 79.3957 12.4231 79.3957 12.7186C79.3957 13.0165 79.3066 13.2604 79.1284 13.4503C78.9525 13.6379 78.7227 13.7728 78.4389 13.8549V13.9112C78.6476 13.9252 78.8329 13.9885 78.9947 14.1011C79.1565 14.2137 79.2832 14.3626 79.3746 14.5479C79.4661 14.7332 79.5118 14.9431 79.5118 15.1776C79.5118 15.5083 79.4204 15.7944 79.2374 16.0359C79.0568 16.2775 78.8059 16.4639 78.4846 16.5953C78.1657 16.7242 77.801 16.7887 77.3906 16.7887C76.9919 16.7887 76.6342 16.7266 76.3176 16.6023C76.0034 16.4757 75.7536 16.2974 75.5683 16.0676C75.3854 15.8378 75.2881 15.5657 75.2764 15.2514ZM81.6287 15.2057L84.0102 11.2763H85.143V16.6797H84.1123V12.7468L81.7412 16.6797H80.5979V11.2763H81.6287V15.2057ZM85.887 12.1839V11.2763H90.4461V12.1839H88.6837V16.6797H87.6565V12.1839H85.887ZM93.6359 16.7887C93.1035 16.7887 92.645 16.675 92.2604 16.4475C91.8782 16.2177 91.5827 15.8952 91.3739 15.4801C91.1676 15.0627 91.0644 14.5737 91.0644 14.0132C91.0644 13.4597 91.1676 12.9719 91.3739 12.5498C91.5827 12.1276 91.8735 11.7981 92.2464 11.5612C92.6216 11.3244 93.0601 11.2059 93.562 11.2059C93.8669 11.2059 94.1624 11.2564 94.4485 11.3572C94.7346 11.4581 94.9914 11.6164 95.2189 11.8321C95.4464 12.0479 95.6258 12.3281 95.7571 12.6729C95.8885 13.0153 95.9541 13.4316 95.9541 13.9217V14.2946H91.6589V13.5066H94.9234C94.9234 13.2299 94.8671 12.9848 94.7546 12.7714C94.642 12.5556 94.4837 12.3856 94.2797 12.2613C94.078 12.137 93.8411 12.0749 93.5691 12.0749C93.2736 12.0749 93.0156 12.1476 92.7951 12.293C92.577 12.436 92.4082 12.6236 92.2886 12.8558C92.1713 13.0856 92.1127 13.3354 92.1127 13.6051V14.2207C92.1127 14.5819 92.176 14.8891 92.3026 15.1424C92.4316 15.3957 92.611 15.5892 92.8409 15.7228C93.0707 15.8542 93.3392 15.9198 93.6465 15.9198C93.8458 15.9198 94.0276 15.8917 94.1917 15.8354C94.3559 15.7768 94.4978 15.69 94.6174 15.5751C94.737 15.4602 94.8284 15.3183 94.8918 15.1494L95.8873 15.3288C95.8076 15.622 95.6645 15.8788 95.4581 16.0992C95.2541 16.3174 94.9973 16.4874 94.6877 16.6093C94.3805 16.7289 94.0299 16.7887 93.6359 16.7887ZM99.7428 16.6797V11.2763H101.984C102.593 11.2763 103.077 11.4065 103.433 11.6668C103.79 11.9248 103.968 12.2754 103.968 12.7186C103.968 13.0352 103.867 13.2862 103.665 13.4714C103.464 13.6567 103.196 13.781 102.863 13.8443C103.105 13.8725 103.326 13.9452 103.528 14.0624C103.73 14.1773 103.892 14.3321 104.013 14.5268C104.138 14.7214 104.2 14.9536 104.2 15.2233C104.2 15.5094 104.126 15.7627 103.978 15.9832C103.831 16.2013 103.616 16.3725 103.335 16.4968C103.055 16.6187 102.719 16.6797 102.325 16.6797H99.7428ZM100.731 15.8002H102.325C102.585 15.8002 102.789 15.7381 102.937 15.6138C103.085 15.4895 103.159 15.3206 103.159 15.1072C103.159 14.8563 103.085 14.6593 102.937 14.5162C102.789 14.3708 102.585 14.2981 102.325 14.2981H100.731V15.8002ZM100.731 13.5277H101.994C102.191 13.5277 102.36 13.4996 102.501 13.4433C102.644 13.387 102.753 13.3073 102.828 13.2041C102.905 13.0985 102.944 12.9742 102.944 12.8312C102.944 12.6225 102.858 12.4595 102.687 12.3422C102.516 12.2249 102.282 12.1663 101.984 12.1663H100.731V13.5277Z" fill="#1F233E"/>
<path d="M49.9793 35.6992H47.2354L52.2312 21.5088H55.4046L60.4073 35.6992H57.6634L53.8733 24.419H53.7625L49.9793 35.6992ZM50.0693 30.1353H57.5526V32.2001H50.0693V30.1353ZM62.0679 39.6903V25.0564H64.5346V26.8164H64.6801C64.8095 26.5577 64.9919 26.2828 65.2275 25.9918C65.4631 25.6962 65.7818 25.4444 66.1837 25.2366C66.5856 25.0241 67.0983 24.9178 67.7219 24.9178C68.5441 24.9178 69.2855 25.128 69.9461 25.5484C70.6113 25.9641 71.1379 26.5808 71.5259 27.3984C71.9185 28.2114 72.1148 29.2091 72.1148 30.3917C72.1148 31.5604 71.9231 32.5535 71.5397 33.3711C71.1563 34.1887 70.6344 34.8123 69.9738 35.2419C69.3133 35.6715 68.5649 35.8863 67.7288 35.8863C67.1191 35.8863 66.6133 35.7847 66.2114 35.5814C65.8095 35.3782 65.4862 35.1334 65.2414 34.847C65.0012 34.5559 64.8141 34.2811 64.6801 34.0224H64.5762V39.6903H62.0679ZM64.5277 30.3778C64.5277 31.0661 64.6247 31.6689 64.8187 32.1863C65.0173 32.7036 65.3014 33.1078 65.671 33.3988C66.0451 33.6852 66.4978 33.8284 67.029 33.8284C67.5833 33.8284 68.0476 33.6806 68.4217 33.385C68.7959 33.0847 69.0777 32.6759 69.2671 32.1585C69.4611 31.6366 69.5581 31.043 69.5581 30.3778C69.5581 29.7173 69.4634 29.1306 69.274 28.6179C69.0846 28.1051 68.8028 27.7033 68.4287 27.4122C68.0545 27.1212 67.588 26.9757 67.029 26.9757C66.4932 26.9757 66.0382 27.1166 65.664 27.3984C65.2899 27.6802 65.0058 28.0751 64.8118 28.5832C64.6224 29.0913 64.5277 29.6895 64.5277 30.3778ZM74.1652 39.6903V25.0564H76.6319V26.8164H76.7774C76.9068 26.5577 77.0892 26.2828 77.3248 25.9918C77.5604 25.6962 77.8791 25.4444 78.281 25.2366C78.6829 25.0241 79.1956 24.9178 79.8192 24.9178C80.6415 24.9178 81.3829 25.128 82.0434 25.5484C82.7086 25.9641 83.2352 26.5808 83.6232 27.3984C84.0158 28.2114 84.2122 29.2091 84.2122 30.3917C84.2122 31.5604 84.0205 32.5535 83.6371 33.3711C83.2537 34.1887 82.7317 34.8123 82.0711 35.2419C81.4106 35.6715 80.6623 35.8863 79.8262 35.8863C79.2164 35.8863 78.7106 35.7847 78.3087 35.5814C77.9069 35.3782 77.5835 35.1334 77.3387 34.847C77.0985 34.5559 76.9114 34.2811 76.7774 34.0224H76.6735V39.6903H74.1652ZM76.625 30.3778C76.625 31.0661 76.722 31.6689 76.916 32.1863C77.1147 32.7036 77.3987 33.1078 77.7683 33.3988C78.1424 33.6852 78.5951 33.8284 79.1263 33.8284C79.6807 33.8284 80.1449 33.6806 80.5191 33.385C80.8932 33.0847 81.175 32.6759 81.3644 32.1585C81.5584 31.6366 81.6554 31.043 81.6554 30.3778C81.6554 29.7173 81.5607 29.1306 81.3713 28.6179C81.1819 28.1051 80.9001 27.7033 80.526 27.4122C80.1518 27.1212 79.6853 26.9757 79.1263 26.9757C78.5905 26.9757 78.1355 27.1166 77.7613 27.3984C77.3872 27.6802 77.1031 28.0751 76.9091 28.5832C76.7197 29.0913 76.625 29.6895 76.625 30.3778ZM98.8276 25.4098C98.7629 24.8047 98.4904 24.3335 98.01 23.9963C97.5342 23.6591 96.9152 23.4905 96.153 23.4905C95.6172 23.4905 95.1576 23.5713 94.7742 23.733C94.3908 23.8947 94.0975 24.1141 93.8942 24.3912C93.691 24.6684 93.587 24.9848 93.5824 25.3405C93.5824 25.6361 93.6494 25.8925 93.7833 26.1096C93.9219 26.3267 94.109 26.5115 94.3446 26.6639C94.5802 26.8117 94.8412 26.9365 95.1275 27.0381C95.4139 27.1397 95.7026 27.2252 95.9937 27.2945L97.324 27.627C97.8598 27.7518 98.3749 27.9204 98.8692 28.1329C99.368 28.3453 99.8138 28.6133 100.206 28.9366C100.604 29.26 100.918 29.6503 101.149 30.1076C101.38 30.5649 101.495 31.1007 101.495 31.7151C101.495 32.5466 101.283 33.2787 100.858 33.9116C100.433 34.5398 99.8184 35.0317 99.0147 35.3874C98.2155 35.7385 97.2478 35.914 96.1115 35.914C95.0074 35.914 94.0489 35.7431 93.236 35.4013C92.4276 35.0594 91.7947 34.5606 91.3374 33.9046C90.8847 33.2487 90.6399 32.4496 90.603 31.5072H93.132C93.169 32.0015 93.3214 32.4126 93.5893 32.7406C93.8572 33.0685 94.206 33.3134 94.6356 33.475C95.0698 33.6367 95.5548 33.7176 96.0907 33.7176C96.6496 33.7176 97.1392 33.6344 97.5596 33.4681C97.9846 33.2972 98.3172 33.0616 98.5574 32.7614C98.7976 32.4565 98.92 32.1008 98.9246 31.6943C98.92 31.3248 98.8114 31.0199 98.5989 30.7797C98.3864 30.5349 98.0885 30.3316 97.7051 30.1699C97.3263 30.0037 96.8829 29.8558 96.3748 29.7265L94.7603 29.3108C93.5916 29.0105 92.6678 28.5555 91.9888 27.9458C91.3143 27.3314 90.9771 26.5161 90.9771 25.4999C90.9771 24.6638 91.2035 23.9316 91.6562 23.3034C92.1135 22.6752 92.7348 22.1878 93.52 21.8414C94.3053 21.4903 95.1945 21.3148 96.1877 21.3148C97.1947 21.3148 98.077 21.4903 98.8345 21.8414C99.5967 22.1878 100.195 22.6706 100.629 23.2895C101.063 23.9039 101.287 24.6107 101.301 25.4098H98.8276ZM108.893 25.0564V26.9965H102.775V25.0564H108.893ZM104.285 22.5066H106.794V32.4981C106.794 32.8353 106.844 33.0939 106.946 33.2741C107.052 33.4496 107.191 33.5697 107.362 33.6344C107.533 33.6991 107.722 33.7314 107.93 33.7314C108.087 33.7314 108.23 33.7199 108.359 33.6968C108.493 33.6737 108.595 33.6529 108.664 33.6344L109.087 35.5953C108.953 35.6415 108.761 35.6923 108.512 35.7477C108.267 35.8032 107.967 35.8355 107.611 35.8447C106.983 35.8632 106.417 35.7685 105.914 35.5606C105.41 35.3482 105.011 35.0202 104.715 34.5767C104.424 34.1333 104.281 33.579 104.285 32.9138V22.5066ZM115.421 35.9071C114.382 35.9071 113.481 35.6784 112.719 35.2211C111.957 34.7638 111.365 34.124 110.945 33.3018C110.529 32.4796 110.322 31.5188 110.322 30.4194C110.322 29.32 110.529 28.3569 110.945 27.53C111.365 26.7032 111.957 26.0611 112.719 25.6038C113.481 25.1465 114.382 24.9178 115.421 24.9178C116.461 24.9178 117.361 25.1465 118.123 25.6038C118.886 26.0611 119.475 26.7032 119.89 27.53C120.311 28.3569 120.521 29.32 120.521 30.4194C120.521 31.5188 120.311 32.4796 119.89 33.3018C119.475 34.124 118.886 34.7638 118.123 35.2211C117.361 35.6784 116.461 35.9071 115.421 35.9071ZM115.435 33.8977C115.999 33.8977 116.47 33.743 116.849 33.4335C117.227 33.1194 117.509 32.699 117.694 32.1724C117.883 31.6458 117.978 31.0592 117.978 30.4125C117.978 29.7611 117.883 29.1722 117.694 28.6456C117.509 28.1144 117.227 27.6917 116.849 27.3776C116.47 27.0635 115.999 26.9064 115.435 26.9064C114.858 26.9064 114.377 27.0635 113.994 27.3776C113.615 27.6917 113.331 28.1144 113.142 28.6456C112.957 29.1722 112.864 29.7611 112.864 30.4125C112.864 31.0592 112.957 31.6458 113.142 32.1724C113.331 32.699 113.615 33.1194 113.994 33.4335C114.377 33.743 114.858 33.8977 115.435 33.8977ZM122.552 35.6992V25.0564H124.984V26.8302H125.095C125.289 26.2159 125.622 25.7424 126.093 25.4098C126.569 25.0726 127.111 24.904 127.721 24.904C127.86 24.904 128.015 24.9109 128.185 24.9248C128.361 24.934 128.506 24.9502 128.622 24.9733V27.2806C128.516 27.2436 128.347 27.2113 128.116 27.1836C127.89 27.1513 127.67 27.1351 127.458 27.1351C127.001 27.1351 126.589 27.2344 126.225 27.433C125.864 27.627 125.58 27.8973 125.372 28.2437C125.164 28.5902 125.061 28.9897 125.061 29.4424V35.6992H122.552ZM134.464 35.9071C133.397 35.9071 132.476 35.6854 131.7 35.2419C130.928 34.7938 130.335 34.161 129.919 33.3434C129.503 32.5212 129.295 31.5534 129.295 30.4402C129.295 29.3454 129.503 28.3846 129.919 27.5578C130.339 26.7263 130.926 26.0796 131.679 25.6177C132.432 25.1511 133.316 24.9178 134.333 24.9178C134.988 24.9178 135.607 25.0241 136.19 25.2366C136.776 25.4444 137.294 25.7678 137.742 26.2066C138.194 26.6454 138.55 27.2044 138.809 27.8834C139.067 28.5578 139.197 29.3616 139.197 30.2947V31.0638H130.473V29.3731H136.792C136.788 28.8927 136.684 28.4654 136.481 28.0913C136.277 27.7125 135.993 27.4146 135.628 27.1974C135.268 26.9803 134.848 26.8718 134.367 26.8718C133.854 26.8718 133.404 26.9965 133.016 27.2459C132.628 27.4908 132.325 27.8141 132.108 28.216C131.896 28.6133 131.787 29.0498 131.783 29.5256V31.0014C131.783 31.6204 131.896 32.1516 132.122 32.5951C132.349 33.0339 132.665 33.3711 133.072 33.6067C133.478 33.8377 133.954 33.9531 134.499 33.9531C134.864 33.9531 135.194 33.9023 135.49 33.8007C135.785 33.6945 136.042 33.5397 136.259 33.3365C136.476 33.1332 136.64 32.8815 136.751 32.5812L139.093 32.8445C138.945 33.4635 138.663 34.0039 138.247 34.4659C137.836 34.9232 137.31 35.2789 136.668 35.5329C136.026 35.7824 135.291 35.9071 134.464 35.9071Z" fill="#1F233E"/>
</svg>
