<svg width="172" height="45" viewBox="0 0 172 45" fill="none" xmlns="http://www.w3.org/2000/svg">
<rect x="0.75" y="0.75" width="170.167" height="43.5" rx="5.91667" stroke="#1F233E" stroke-width="1.5"/>
<path d="M30.6013 27.7249C30.351 27.7249 30.0876 27.6195 29.9031 27.4351L25.7012 23.2341C25.3192 22.8522 25.3192 22.2201 25.7012 21.8382L29.9427 17.5977C30.2456 17.2948 30.7066 17.2289 31.0886 17.4133L37.0029 20.3764C37.8196 20.7715 38.3333 21.588 38.3333 22.5098C38.3333 23.4317 37.8196 24.2482 37.0029 24.6433L31.0623 27.6195C30.9042 27.6854 30.7462 27.7249 30.6013 27.7249ZM27.7956 22.5362L30.7857 25.5256L36.0941 22.8654C36.0941 22.8654 36.0941 22.8654 36.1072 22.8654C36.3048 22.7732 36.3312 22.602 36.3312 22.5098C36.3312 22.4176 36.3048 22.2465 36.1072 22.1543L30.8252 19.5072L27.7956 22.5362Z" fill="#1F233E"/>
<path d="M12.3973 36.6668C11.9627 36.6668 11.5148 36.5483 11.1328 36.2981C10.4215 35.8635 10 35.0997 10 34.2569V10.7365C10 9.90679 10.4215 9.14299 11.1328 8.69523C11.8441 8.26065 12.7135 8.20795 13.4643 8.58986L31.0755 17.4001C31.3653 17.545 31.5628 17.8084 31.6024 18.1245C31.6419 18.4405 31.5497 18.7566 31.3257 18.9805L14.4654 35.8372C14.3863 35.9162 14.3073 35.9689 14.2019 36.0215L13.4379 36.4034C13.1218 36.5878 12.753 36.6668 12.3973 36.6668ZM12.3973 10.3282C12.3051 10.3282 12.2261 10.3677 12.1734 10.394C12.0944 10.4336 11.9758 10.5521 11.9758 10.7496V34.27C11.9758 34.4807 12.0944 34.5861 12.1734 34.6256C12.2524 34.6783 12.3973 34.7309 12.5949 34.6387L13.2008 34.3359L28.9679 18.5722L12.5817 10.3809C12.5159 10.3414 12.45 10.3282 12.3973 10.3282Z" fill="#1F233E"/>
<path d="M13.7804 36.1401C13.4775 36.1401 13.1745 35.9952 12.9769 35.7318C12.6871 35.3368 12.7398 34.7968 13.0823 34.4544L25.7012 21.8382C25.8856 21.6538 26.1359 21.5485 26.3993 21.5485C26.6628 21.5485 26.9131 21.6538 27.0975 21.8382L31.2994 26.0392C31.5233 26.2631 31.6287 26.5791 31.576 26.8952C31.5233 27.2113 31.3257 27.4747 31.0491 27.6195L14.2414 36.0347C14.0834 36.1005 13.9385 36.1401 13.7804 36.1401ZM26.3993 23.9321L18.799 31.5308L28.9284 26.4606L26.3993 23.9321Z" fill="#1F233E"/>
<path d="M26.3993 23.5239C26.1491 23.5239 25.8988 23.4317 25.7012 23.2341L13.0428 10.5784C12.6608 10.1965 12.6608 9.56441 13.0428 9.1825C13.4248 8.80059 14.057 8.80059 14.439 9.1825L27.0975 21.8382C27.4795 22.2201 27.4795 22.8522 27.0975 23.2341C26.9131 23.4317 26.6496 23.5239 26.3993 23.5239Z" fill="#1F233E"/>
<path d="M30.6144 27.7512C30.3773 27.7512 30.1271 27.659 29.9427 27.4615L29.9031 27.422C29.5212 27.0401 29.5212 26.408 29.9163 26.0261C30.3115 25.6441 30.9306 25.6441 31.3126 26.0392C31.6946 26.4211 31.7077 27.0796 31.3257 27.4615C31.115 27.659 30.8647 27.7512 30.6144 27.7512Z" fill="#1F233E"/>
<path d="M49.8616 16.7648C49.3795 16.7648 48.9488 16.6817 48.5696 16.5155C48.1927 16.3493 47.8943 16.1188 47.6743 15.8239C47.4566 15.5266 47.3396 15.1825 47.3232 14.7916H48.4256C48.4397 15.0046 48.5111 15.1895 48.6398 15.3464C48.7709 15.5008 48.9418 15.6202 49.1524 15.7045C49.3631 15.7888 49.5971 15.8309 49.8546 15.8309C50.1378 15.8309 50.3883 15.7817 50.606 15.6834C50.826 15.5851 50.998 15.4482 51.1221 15.2726C51.2462 15.0947 51.3082 14.8899 51.3082 14.6582C51.3082 14.4171 51.2462 14.2053 51.1221 14.0227C51.0004 13.8378 50.8213 13.6927 50.5849 13.5873C50.3508 13.482 50.0676 13.4294 49.7352 13.4294H49.1278V12.5446H49.7352C50.0021 12.5446 50.2362 12.4966 50.4375 12.4006C50.6411 12.3047 50.8003 12.1712 50.9149 12.0004C51.0296 11.8272 51.087 11.6247 51.087 11.393C51.087 11.1706 51.0367 10.9775 50.936 10.8136C50.8377 10.6475 50.6973 10.5176 50.5147 10.4239C50.3345 10.3303 50.1215 10.2835 49.8757 10.2835C49.6416 10.2835 49.4228 10.3268 49.2191 10.4134C49.0178 10.4977 48.854 10.6194 48.7276 10.7785C48.6012 10.9354 48.5333 11.1238 48.524 11.3438H47.4742C47.4859 10.9553 47.6006 10.6135 47.8182 10.3186C48.0383 10.0237 48.3285 9.79312 48.689 9.62693C49.0494 9.46074 49.4497 9.37765 49.8897 9.37765C50.3508 9.37765 50.7488 9.46776 51.0835 9.64799C51.4205 9.82589 51.6803 10.0635 51.8629 10.3607C52.0478 10.658 52.1391 10.9833 52.1368 11.3368C52.1391 11.7394 52.0268 12.0811 51.7997 12.362C51.575 12.6429 51.2754 12.8313 50.9009 12.9273V12.9835C51.3784 13.056 51.7482 13.2456 52.0104 13.5522C52.2749 13.8589 52.406 14.2392 52.4036 14.6933C52.406 15.0889 52.2959 15.4435 52.0736 15.7572C51.8536 16.0708 51.5528 16.3177 51.1713 16.498C50.7897 16.6759 50.3532 16.7648 49.8616 16.7648ZM55.3142 16.7859C54.9725 16.7859 54.6635 16.7227 54.3873 16.5963C54.1111 16.4675 53.8923 16.2815 53.7308 16.038C53.5716 15.7946 53.492 15.4962 53.492 15.1427C53.492 14.8384 53.5505 14.588 53.6676 14.3914C53.7846 14.1948 53.9426 14.0391 54.1416 13.9244C54.3405 13.8097 54.5629 13.7231 54.8087 13.6646C55.0544 13.6061 55.3049 13.5616 55.56 13.5312C55.883 13.4937 56.1452 13.4633 56.3465 13.4399C56.5478 13.4141 56.6941 13.3732 56.7854 13.317C56.8766 13.2608 56.9223 13.1695 56.9223 13.0431V13.0186C56.9223 12.7119 56.8357 12.4744 56.6625 12.3058C56.4916 12.1373 56.2365 12.053 55.8971 12.053C55.5436 12.053 55.2651 12.1314 55.0615 12.2883C54.8602 12.4428 54.7209 12.6148 54.6436 12.8044L53.657 12.5797C53.7741 12.252 53.945 11.9875 54.1697 11.7862C54.3967 11.5826 54.6577 11.4351 54.9526 11.3438C55.2475 11.2502 55.5577 11.2034 55.883 11.2034C56.0984 11.2034 56.3266 11.2291 56.5677 11.2806C56.8111 11.3298 57.0382 11.4211 57.2488 11.5545C57.4618 11.6879 57.6362 11.8787 57.772 12.1268C57.9077 12.3725 57.9756 12.692 57.9756 13.0853V16.6665H56.9504V15.9292H56.9082C56.8404 16.065 56.7385 16.1984 56.6028 16.3294C56.467 16.4605 56.2926 16.5694 56.0796 16.656C55.8666 16.7426 55.6115 16.7859 55.3142 16.7859ZM55.5425 15.9432C55.8327 15.9432 56.0808 15.8859 56.2868 15.7712C56.4951 15.6565 56.6531 15.5067 56.7608 15.3218C56.8708 15.1345 56.9258 14.9344 56.9258 14.7214V14.0262C56.8883 14.0637 56.8158 14.0988 56.7081 14.1316C56.6028 14.162 56.4822 14.1889 56.3465 14.2123C56.2107 14.2334 56.0785 14.2533 55.9497 14.272C55.821 14.2884 55.7133 14.3024 55.6267 14.3141C55.4231 14.3399 55.237 14.3832 55.0685 14.444C54.9023 14.5049 54.7689 14.5927 54.6682 14.7074C54.5699 14.8197 54.5208 14.9695 54.5208 15.1568C54.5208 15.4166 54.6167 15.6132 54.8087 15.7466C55.0006 15.8777 55.2452 15.9432 55.5425 15.9432ZM62.8217 11.2736V12.1794H60.4096V16.6665H59.3738V11.2736H62.8217ZM63.9311 18.6888V11.2736H64.9564V12.1478H65.0441C65.105 12.0355 65.1928 11.9056 65.3075 11.7581C65.4222 11.6106 65.5813 11.4819 65.785 11.3719C65.9886 11.2595 66.2578 11.2034 66.5925 11.2034C67.0279 11.2034 67.4164 11.3134 67.7581 11.5334C68.0999 11.7534 68.3679 12.0706 68.5622 12.4849C68.7588 12.8992 68.8571 13.3978 68.8571 13.9806C68.8571 14.5634 68.76 15.0631 68.5657 15.4798C68.3714 15.8941 68.1046 16.2136 67.7652 16.4383C67.4258 16.6607 67.0384 16.7718 66.603 16.7718C66.2753 16.7718 66.0073 16.7168 65.799 16.6068C65.593 16.4968 65.4315 16.3681 65.3145 16.2206C65.1974 16.0731 65.1073 15.9421 65.0441 15.8274H64.9809V18.6888H63.9311ZM64.9599 13.97C64.9599 14.3492 65.0149 14.6816 65.1249 14.9672C65.2349 15.2527 65.3941 15.4763 65.6024 15.6378C65.8107 15.7969 66.0658 15.8765 66.3678 15.8765C66.6814 15.8765 66.9436 15.7934 67.1542 15.6272C67.3649 15.4587 67.5241 15.2305 67.6317 14.9426C67.7418 14.6547 67.7968 14.3305 67.7968 13.97C67.7968 13.6143 67.7429 13.2948 67.6353 13.0115C67.5299 12.7283 67.3708 12.5048 67.1578 12.3409C66.9471 12.1771 66.6838 12.0952 66.3678 12.0952C66.0635 12.0952 65.806 12.1736 65.5954 12.3304C65.387 12.4872 65.229 12.7061 65.1214 12.987C65.0137 13.2678 64.9599 13.5955 64.9599 13.97ZM70.5134 18.6888C70.3566 18.6888 70.2138 18.676 70.0851 18.6502C69.9563 18.6268 69.8604 18.6011 69.7972 18.573L70.05 17.7128C70.2419 17.7643 70.4128 17.7865 70.5626 17.7795C70.7124 17.7725 70.8446 17.7163 70.9593 17.611C71.0763 17.5056 71.1793 17.3336 71.2683 17.0948L71.3982 16.7367L69.425 11.2736H70.5485L71.9143 15.4587H71.9705L73.3363 11.2736H74.4633L72.2408 17.3863C72.1378 17.6671 72.0068 17.9047 71.8476 18.099C71.6884 18.2956 71.4988 18.4431 71.2788 18.5414C71.0588 18.6397 70.8037 18.6888 70.5134 18.6888ZM75.1304 15.241H76.2048C76.2188 15.4611 76.3183 15.6308 76.5032 15.7501C76.6904 15.8695 76.9327 15.9292 77.23 15.9292C77.5319 15.9292 77.7894 15.8648 78.0024 15.7361C78.2154 15.605 78.3219 15.4025 78.3219 15.1287C78.3219 14.9648 78.2809 14.8221 78.199 14.7003C78.1194 14.5763 78.0059 14.4803 77.8584 14.4124C77.7133 14.3446 77.5413 14.3106 77.3423 14.3106H76.4646V13.4855H77.3423C77.6396 13.4855 77.862 13.4176 78.0094 13.2819C78.1569 13.1461 78.2306 12.9764 78.2306 12.7728C78.2306 12.5528 78.151 12.376 77.9919 12.2426C77.835 12.1069 77.6162 12.039 77.3353 12.039C77.0497 12.039 76.8122 12.1034 76.6226 12.2321C76.433 12.3585 76.3335 12.5223 76.3241 12.7236H75.2638C75.2708 12.4217 75.3621 12.1572 75.5377 11.9302C75.7156 11.7008 75.9543 11.5229 76.2539 11.3965C76.5559 11.2677 76.8988 11.2034 77.2826 11.2034C77.6829 11.2034 78.0293 11.2677 78.3219 11.3965C78.6145 11.5252 78.8404 11.7031 78.9995 11.9302C79.161 12.1572 79.2418 12.4182 79.2418 12.7131C79.2418 13.0104 79.1528 13.2538 78.9749 13.4434C78.7994 13.6307 78.57 13.7652 78.2868 13.8472V13.9033C78.4951 13.9174 78.68 13.9806 78.8415 14.0929C79.003 14.2053 79.1294 14.3539 79.2207 14.5388C79.312 14.7237 79.3576 14.9332 79.3576 15.1673C79.3576 15.4973 79.2664 15.7829 79.0838 16.024C78.9036 16.2651 78.6531 16.4512 78.3324 16.5822C78.0141 16.711 77.6501 16.7753 77.2405 16.7753C76.8426 16.7753 76.4856 16.7133 76.1696 16.5893C75.856 16.4629 75.6067 16.285 75.4218 16.0556C75.2392 15.8262 75.1421 15.5547 75.1304 15.241ZM81.4704 15.1954L83.8473 11.2736H84.9779V16.6665H83.9492V12.7412L81.5827 16.6665H80.4417V11.2736H81.4704V15.1954ZM85.7205 12.1794V11.2736H90.2707V12.1794H88.5117V16.6665H87.4865V12.1794H85.7205ZM93.4543 16.7753C92.923 16.7753 92.4654 16.6618 92.0815 16.4348C91.7 16.2054 91.4051 15.8835 91.1968 15.4692C90.9908 15.0526 90.8878 14.5646 90.8878 14.0052C90.8878 13.4528 90.9908 12.9659 91.1968 12.5446C91.4051 12.1233 91.6953 11.7944 92.0675 11.558C92.442 11.3216 92.8797 11.2034 93.3806 11.2034C93.6849 11.2034 93.9798 11.2537 94.2654 11.3543C94.551 11.455 94.8073 11.613 95.0343 11.8283C95.2613 12.0437 95.4404 12.3234 95.5715 12.6675C95.7026 13.0092 95.7681 13.4247 95.7681 13.9139V14.286H91.4812V13.4996H94.7394C94.7394 13.2234 94.6832 12.9788 94.5709 12.7658C94.4585 12.5504 94.3005 12.3807 94.0969 12.2567C93.8956 12.1326 93.6592 12.0706 93.3876 12.0706C93.0927 12.0706 92.8352 12.1432 92.6152 12.2883C92.3975 12.4311 92.229 12.6183 92.1096 12.85C91.9926 13.0794 91.9341 13.3287 91.9341 13.5979V14.2123C91.9341 14.5728 91.9973 14.8794 92.1237 15.1322C92.2524 15.385 92.4315 15.5781 92.6609 15.7115C92.8902 15.8426 93.1583 15.9081 93.4649 15.9081C93.6638 15.9081 93.8452 15.88 94.0091 15.8239C94.1729 15.7653 94.3145 15.6787 94.4339 15.564C94.5533 15.4494 94.6446 15.3077 94.7078 15.1392L95.7014 15.3183C95.6218 15.6109 95.479 15.8672 95.2731 16.0872C95.0694 16.3049 94.8131 16.4746 94.5041 16.5963C94.1975 16.7157 93.8476 16.7753 93.4543 16.7753ZM99.5495 16.6665V11.2736H101.786C102.395 11.2736 102.877 11.4035 103.233 11.6633C103.588 11.9208 103.766 12.2707 103.766 12.7131C103.766 13.0291 103.666 13.2795 103.464 13.4645C103.263 13.6494 102.996 13.7734 102.664 13.8366C102.905 13.8647 103.126 13.9373 103.327 14.0543C103.529 14.169 103.69 14.3235 103.812 14.5178C103.936 14.712 103.998 14.9438 103.998 15.2129C103.998 15.4985 103.924 15.7513 103.777 15.9713C103.629 16.189 103.415 16.3599 103.134 16.4839C102.856 16.6056 102.52 16.6665 102.127 16.6665H99.5495ZM100.536 15.7888H102.127C102.386 15.7888 102.59 15.7267 102.737 15.6027C102.885 15.4786 102.959 15.3101 102.959 15.0971C102.959 14.8466 102.885 14.65 102.737 14.5072C102.59 14.3621 102.386 14.2895 102.127 14.2895H100.536V15.7888ZM100.536 13.5206H101.797C101.993 13.5206 102.162 13.4926 102.302 13.4364C102.445 13.3802 102.554 13.3006 102.629 13.1976C102.706 13.0923 102.744 12.9682 102.744 12.8255C102.744 12.6171 102.659 12.4545 102.488 12.3374C102.317 12.2204 102.083 12.1619 101.786 12.1619H100.536V13.5206Z" fill="#1F233E"/>
<path d="M54.9236 35.9781C53.5864 35.9781 52.353 35.6665 51.2235 35.0433C50.107 34.4072 49.2177 33.5373 48.5556 32.4338C47.8935 31.3173 47.5624 30.071 47.5624 28.6948C47.5624 27.3187 47.8935 26.0788 48.5556 24.9753C49.2177 23.8588 50.107 22.9889 51.2235 22.3658C52.353 21.7296 53.5864 21.4115 54.9236 21.4115C56.0141 21.4115 57.0073 21.6063 57.9031 21.9958C58.8119 22.3723 59.5909 22.911 60.24 23.6121L58.4289 25.3842C57.9615 24.8909 57.4422 24.5209 56.871 24.2742C56.3127 24.0275 55.6571 23.9042 54.9041 23.9042C54.0473 23.9042 53.2618 24.1054 52.5478 24.5079C51.8337 24.8974 51.2625 25.4621 50.8341 26.2021C50.4186 26.9292 50.2109 27.7601 50.2109 28.6948C50.2109 29.6296 50.4251 30.4669 50.8535 31.207C51.282 31.934 51.8532 32.4987 52.5672 32.9012C53.2943 33.2907 54.0862 33.4854 54.9431 33.4854C56.2413 33.4854 57.3059 33.1024 58.1368 32.3365C58.3965 32.1028 58.6237 31.8042 58.8184 31.4406C59.0131 31.0771 59.1559 30.6812 59.2468 30.2527H54.8652V28.0132H61.7005C61.7914 28.3767 61.8369 28.7857 61.8369 29.2401C61.8369 30.1619 61.6941 31.0187 61.4084 31.8107C61.1358 32.6026 60.7139 33.2972 60.1426 33.8944C59.5195 34.5695 58.7665 35.0888 57.8836 35.4523C57.0008 35.8028 56.0141 35.9781 54.9236 35.9781ZM68.561 35.9781C67.5354 35.9781 66.6201 35.7509 65.8152 35.2965C65.0103 34.8291 64.3806 34.1995 63.9262 33.4075C63.4848 32.6026 63.2641 31.7003 63.2641 30.7006C63.2641 29.714 63.4848 28.8181 63.9262 28.0132C64.3806 27.2083 65.0103 26.5786 65.8152 26.1242C66.6201 25.6569 67.5354 25.4232 68.561 25.4232C69.5737 25.4232 70.4825 25.6569 71.2874 26.1242C72.0923 26.5786 72.7155 27.2083 73.1569 28.0132C73.6113 28.8181 73.8385 29.714 73.8385 30.7006C73.8385 31.7003 73.6113 32.6026 73.1569 33.4075C72.7155 34.1995 72.0923 34.8291 71.2874 35.2965C70.4825 35.7509 69.5737 35.9781 68.561 35.9781ZM68.561 33.6217C69.0544 33.6217 69.5088 33.5049 69.9242 33.2712C70.3396 33.0375 70.6707 32.7 70.9174 32.2586C71.164 31.8171 71.2874 31.2978 71.2874 30.7006C71.2874 30.1164 71.164 29.6036 70.9174 29.1622C70.6707 28.7208 70.3396 28.3832 69.9242 28.1495C69.5088 27.9159 69.0544 27.799 68.561 27.799C68.0677 27.799 67.6133 27.9159 67.1978 28.1495C66.7824 28.3832 66.4448 28.7208 66.1852 29.1622C65.9385 29.6036 65.8152 30.1164 65.8152 30.7006C65.8152 31.2849 65.9385 31.8042 66.1852 32.2586C66.4448 32.7 66.7824 33.0375 67.1978 33.2712C67.6133 33.5049 68.0677 33.6217 68.561 33.6217ZM80.4447 35.9781C79.4191 35.9781 78.5038 35.7509 77.6989 35.2965C76.894 34.8291 76.2643 34.1995 75.8099 33.4075C75.3685 32.6026 75.1478 31.7003 75.1478 30.7006C75.1478 29.714 75.3685 28.8181 75.8099 28.0132C76.2643 27.2083 76.894 26.5786 77.6989 26.1242C78.5038 25.6569 79.4191 25.4232 80.4447 25.4232C81.4574 25.4232 82.3662 25.6569 83.1711 26.1242C83.976 26.5786 84.5992 27.2083 85.0406 28.0132C85.495 28.8181 85.7222 29.714 85.7222 30.7006C85.7222 31.7003 85.495 32.6026 85.0406 33.4075C84.5992 34.1995 83.976 34.8291 83.1711 35.2965C82.3662 35.7509 81.4574 35.9781 80.4447 35.9781ZM80.4447 33.6217C80.9381 33.6217 81.3925 33.5049 81.8079 33.2712C82.2233 33.0375 82.5544 32.7 82.8011 32.2586C83.0477 31.8171 83.1711 31.2978 83.1711 30.7006C83.1711 30.1164 83.0477 29.6036 82.8011 29.1622C82.5544 28.7208 82.2233 28.3832 81.8079 28.1495C81.3925 27.9159 80.9381 27.799 80.4447 27.799C79.9514 27.799 79.497 27.9159 79.0815 28.1495C78.6661 28.3832 78.3285 28.7208 78.0689 29.1622C77.8222 29.6036 77.6989 30.1164 77.6989 30.7006C77.6989 31.2849 77.8222 31.8042 78.0689 32.2586C78.3285 32.7 78.6661 33.0375 79.0815 33.2712C79.497 33.5049 79.9514 33.6217 80.4447 33.6217ZM92.1532 40.1845C90.8938 40.1845 89.8487 39.8989 89.0178 39.3276C88.187 38.7694 87.6287 38.0943 87.3431 37.3023L89.7384 36.3286C89.9461 36.822 90.2642 37.2114 90.6926 37.4971C91.121 37.7827 91.6079 37.9255 92.1532 37.9255C92.9581 37.9255 93.5942 37.6788 94.0616 37.1855C94.542 36.6921 94.7821 35.9911 94.7821 35.0823V34.3033H94.6264C94.3148 34.7447 93.9058 35.0823 93.3995 35.316C92.8932 35.5497 92.3154 35.6665 91.6663 35.6665C90.8484 35.6665 90.0824 35.4588 89.3684 35.0433C88.6673 34.6149 88.1026 34.0177 87.6741 33.2517C87.2457 32.4728 87.0315 31.5705 87.0315 30.5448C87.0315 29.5192 87.2457 28.6234 87.6741 27.8574C88.1026 27.0785 88.6673 26.4813 89.3684 26.0658C90.0824 25.6374 90.8484 25.4232 91.6663 25.4232C92.3154 25.4232 92.8932 25.54 93.3995 25.7737C93.9058 26.0074 94.3148 26.345 94.6264 26.7864H94.7821V25.7348H97.2359V34.9849C97.2359 36.0495 97.0281 36.9713 96.6127 37.7502C96.1973 38.5292 95.6065 39.1264 94.8406 39.5418C94.0746 39.9703 93.1788 40.1845 92.1532 40.1845ZM92.1921 33.3491C92.9062 33.3491 93.5163 33.1024 94.0227 32.6091C94.529 32.1028 94.7821 31.4147 94.7821 30.5448C94.7821 29.649 94.529 28.961 94.0227 28.4806C93.5293 27.9873 92.9191 27.7406 92.1921 27.7406C91.4651 27.7406 90.8484 27.9873 90.3421 28.4806C89.8358 28.9739 89.5826 29.662 89.5826 30.5448C89.5826 31.4277 89.8358 32.1157 90.3421 32.6091C90.8484 33.1024 91.4651 33.3491 92.1921 33.3491ZM99.6316 21.7231H102.183V35.6665H99.6316V21.7231ZM109.152 35.9781C108.165 35.9781 107.276 35.7509 106.484 35.2965C105.692 34.8421 105.069 34.2189 104.615 33.427C104.173 32.6221 103.953 31.7198 103.953 30.7201C103.953 29.7724 104.173 28.896 104.615 28.0911C105.056 27.2732 105.666 26.6241 106.445 26.1437C107.224 25.6634 108.094 25.4232 109.055 25.4232C110.08 25.4232 110.963 25.6439 111.703 26.0853C112.443 26.5267 113.001 27.1304 113.378 27.8964C113.767 28.6624 113.962 29.5127 113.962 30.4475C113.962 30.7461 113.943 31.0317 113.904 31.3043H106.445C106.575 32.0963 106.887 32.7 107.38 33.1154C107.886 33.5179 108.49 33.7191 109.191 33.7191C109.775 33.7191 110.275 33.5958 110.691 33.3491C111.119 33.0894 111.457 32.7454 111.703 32.317L113.767 33.3296C112.755 35.0953 111.216 35.9781 109.152 35.9781ZM111.508 29.4932C111.483 29.1817 111.366 28.8766 111.158 28.578C110.963 28.2664 110.684 28.0132 110.321 27.8185C109.97 27.6108 109.555 27.5069 109.074 27.5069C108.464 27.5069 107.938 27.6887 107.497 28.0522C107.068 28.4027 106.757 28.8831 106.562 29.4932H111.508ZM120.647 21.7231H125.555C126.438 21.7231 127.243 21.9114 127.97 22.2879C128.697 22.6514 129.268 23.1707 129.683 23.8458C130.099 24.5079 130.307 25.2674 130.307 26.1242C130.307 26.9811 130.099 27.7471 129.683 28.4222C129.268 29.0973 128.697 29.6231 127.97 29.9996C127.243 30.3631 126.438 30.5448 125.555 30.5448H123.276V35.6665H120.647V21.7231ZM125.633 28.0522C126.282 28.0522 126.788 27.8639 127.152 27.4874C127.528 27.1109 127.716 26.6565 127.716 26.1242C127.716 25.592 127.528 25.1441 127.152 24.7805C126.788 24.404 126.282 24.2158 125.633 24.2158H123.276V28.0522H125.633ZM132.181 21.7231H134.732V35.6665H132.181V21.7231ZM140.085 35.9781C139.033 35.9781 138.17 35.673 137.495 35.0628C136.82 34.4396 136.482 33.6282 136.482 32.6286C136.482 31.9664 136.657 31.3822 137.008 30.8759C137.358 30.3696 137.839 29.9801 138.449 29.7075C139.059 29.4348 139.734 29.2985 140.474 29.2985C141.5 29.2985 142.376 29.4478 143.103 29.7464V29.318C143.103 28.7727 142.895 28.3313 142.48 27.9938C142.078 27.6562 141.532 27.4874 140.844 27.4874C140.377 27.4874 139.922 27.5978 139.481 27.8185C139.053 28.0262 138.696 28.3053 138.41 28.6559L136.774 27.3706C137.255 26.7474 137.858 26.2671 138.585 25.9295C139.312 25.592 140.104 25.4232 140.961 25.4232C142.48 25.4232 143.635 25.7737 144.427 26.4748C145.219 27.1758 145.615 28.2015 145.615 29.5517V35.6665H143.103V34.6539H142.947C142.649 35.0433 142.253 35.3614 141.76 35.6081C141.279 35.8548 140.721 35.9781 140.085 35.9781ZM140.688 33.9917C141.428 33.9917 142.013 33.7581 142.441 33.2907C142.883 32.8103 143.103 32.2521 143.103 31.6159C142.441 31.3043 141.747 31.1485 141.019 31.1485C139.695 31.1485 139.033 31.6419 139.033 32.6286C139.033 33.031 139.176 33.3621 139.462 33.6217C139.747 33.8684 140.156 33.9917 140.688 33.9917ZM150.772 35.1991L146.585 25.7348H149.486L152.057 31.908H152.213L154.686 25.7348H157.529L151.395 39.8729H148.649L150.772 35.1991Z" fill="#1F233E"/>
</svg>
