<svg width="93" height="32" viewBox="0 0 93 32" fill="none" xmlns="http://www.w3.org/2000/svg">
<path d="M1.48 12H4.86V23.1H10.48V26H1.48V12ZM11.2064 21.4C11.2064 20.4267 11.4331 19.58 11.8864 18.86C12.3397 18.14 12.9664 17.58 13.7664 17.18C14.5664 16.78 15.4664 16.58 16.4664 16.58C17.4664 16.58 18.3597 16.78 19.1464 17.18C19.9464 17.58 20.5731 18.14 21.0264 18.86C21.4931 19.58 21.7264 20.4267 21.7264 21.4C21.7264 22.36 21.4931 23.2 21.0264 23.92C20.5731 24.64 19.9464 25.2 19.1464 25.6C18.3597 26 17.4664 26.2 16.4664 26.2C15.4664 26.2 14.5664 26 13.7664 25.6C12.9664 25.2 12.3397 24.64 11.8864 23.92C11.4331 23.2 11.2064 22.36 11.2064 21.4ZM14.3064 21.4C14.3064 21.88 14.4064 22.2933 14.6064 22.64C14.8064 22.9733 15.0664 23.2333 15.3864 23.42C15.7064 23.6067 16.0664 23.7 16.4664 23.7C16.8531 23.7 17.2064 23.6067 17.5264 23.42C17.8597 23.2333 18.1197 22.9733 18.3064 22.64C18.5064 22.2933 18.6064 21.88 18.6064 21.4C18.6064 20.92 18.5064 20.5067 18.3064 20.16C18.1197 19.8133 17.8597 19.5467 17.5264 19.36C17.2064 19.1733 16.8531 19.08 16.4664 19.08C16.0664 19.08 15.7064 19.1733 15.3864 19.36C15.0664 19.5467 14.8064 19.8133 14.6064 20.16C14.4064 20.5067 14.3064 20.92 14.3064 21.4ZM21.9303 16.8H25.0903L27.0103 21.52L29.6503 16.1L32.3503 21.52L34.2703 16.8H37.4303L32.6903 26.58L29.6503 21.1L26.6703 26.58L21.9303 16.8ZM44.7613 12H48.1413V26H44.7613V12ZM46.8813 14.78V12H49.6213C50.8079 12 51.8013 12.1867 52.6013 12.56C53.4146 12.92 54.0279 13.44 54.4413 14.12C54.8546 14.8 55.0613 15.62 55.0613 16.58C55.0613 17.5133 54.8546 18.3267 54.4413 19.02C54.0279 19.7 53.4146 20.2267 52.6013 20.6C51.8013 20.96 50.8079 21.14 49.6213 21.14H46.8813V18.36H49.6213C50.3013 18.36 50.8346 18.2067 51.2213 17.9C51.6079 17.5933 51.8013 17.1533 51.8013 16.58C51.8013 15.9933 51.6079 15.5467 51.2213 15.24C50.8346 14.9333 50.3013 14.78 49.6213 14.78H46.8813ZM59.6916 22.4C59.6916 22.9333 59.7916 23.3533 59.9916 23.66C60.1916 23.9533 60.5382 24.1 61.0316 24.1C61.3649 24.1 61.6449 24.0333 61.8716 23.9C62.1116 23.7667 62.2982 23.5733 62.4316 23.32C62.5649 23.0667 62.6316 22.76 62.6316 22.4V16.8H65.6516V26H62.6316V24.62C62.3516 25.1133 61.9849 25.5067 61.5316 25.8C61.0782 26.08 60.5116 26.22 59.8316 26.22C58.6849 26.22 57.8449 25.9133 57.3116 25.3C56.7916 24.6733 56.5316 23.8133 56.5316 22.72V16.8H59.6916V22.4ZM68.0355 10.4H71.0755V26H68.0355V10.4ZM73.9261 22.66C74.3928 23.0467 74.8128 23.3533 75.1861 23.58C75.5728 23.7933 75.9128 23.9467 76.2061 24.04C76.4994 24.12 76.7528 24.16 76.9661 24.16C77.2728 24.16 77.4994 24.0933 77.6461 23.96C77.7928 23.8267 77.8661 23.6533 77.8661 23.44C77.8661 23.24 77.8061 23.0733 77.6861 22.94C77.5661 22.7933 77.3594 22.6533 77.0661 22.52C76.7861 22.3867 76.3994 22.2467 75.9061 22.1C75.4661 21.94 75.0461 21.7533 74.6461 21.54C74.2594 21.3133 73.9394 21.0133 73.6861 20.64C73.4328 20.2667 73.3061 19.7867 73.3061 19.2C73.3061 18.64 73.4528 18.1667 73.7461 17.78C74.0528 17.3933 74.4594 17.1 74.9661 16.9C75.4861 16.7 76.0794 16.6 76.7461 16.6C77.2794 16.6 77.7728 16.66 78.2261 16.78C78.6928 16.9 79.1261 17.06 79.5261 17.26C79.9394 17.46 80.3261 17.6933 80.6861 17.96L79.6061 19.92C79.2194 19.56 78.7794 19.2667 78.2861 19.04C77.7928 18.8 77.3394 18.68 76.9261 18.68C76.6461 18.68 76.4328 18.7333 76.2861 18.84C76.1528 18.9467 76.0861 19.0867 76.0861 19.26C76.0861 19.46 76.1661 19.6267 76.3261 19.76C76.4994 19.8933 76.7394 20.02 77.0461 20.14C77.3661 20.2467 77.7528 20.3867 78.2061 20.56C78.6861 20.7333 79.1261 20.9333 79.5261 21.16C79.9394 21.3867 80.2661 21.6733 80.5061 22.02C80.7594 22.3667 80.8861 22.8267 80.8861 23.4C80.8861 24.3867 80.5794 25.1333 79.9661 25.64C79.3661 26.1333 78.5194 26.38 77.4261 26.38C76.7594 26.38 76.1394 26.3 75.5661 26.14C75.0061 25.9933 74.4861 25.7933 74.0061 25.54C73.5261 25.2733 73.0794 24.98 72.6661 24.66L73.9261 22.66ZM87.2272 26.2C86.1605 26.2 85.2339 26.0067 84.4472 25.62C83.6739 25.22 83.0739 24.66 82.6472 23.94C82.2205 23.22 82.0072 22.3733 82.0072 21.4C82.0072 20.4133 82.2139 19.56 82.6272 18.84C83.0405 18.12 83.6339 17.5667 84.4072 17.18C85.1939 16.7933 86.1205 16.6 87.1872 16.6C88.2539 16.6 89.1539 16.7867 89.8872 17.16C90.6205 17.52 91.1805 18.0467 91.5672 18.74C91.9539 19.4333 92.1472 20.2733 92.1472 21.26C92.1472 21.4067 92.1472 21.5533 92.1472 21.7C92.1472 21.8333 92.1339 21.9467 92.1072 22.04H83.7072V20.36H89.3872L88.6672 21.28C88.7339 21.1867 88.7872 21.0733 88.8272 20.94C88.8805 20.7933 88.9072 20.6733 88.9072 20.58C88.9072 20.18 88.8339 19.8333 88.6872 19.54C88.5405 19.2467 88.3339 19.02 88.0672 18.86C87.8005 18.7 87.4872 18.62 87.1272 18.62C86.6739 18.62 86.2939 18.72 85.9872 18.92C85.6805 19.12 85.4472 19.4267 85.2872 19.84C85.1405 20.24 85.0605 20.7467 85.0472 21.36C85.0472 21.92 85.1272 22.4 85.2872 22.8C85.4472 23.2 85.6872 23.5067 86.0072 23.72C86.3272 23.92 86.7205 24.02 87.1872 24.02C87.7205 24.02 88.1739 23.92 88.5472 23.72C88.9339 23.52 89.2405 23.22 89.4672 22.82L92.1672 23.48C91.6872 24.3867 91.0339 25.0667 90.2072 25.52C89.3939 25.9733 88.4005 26.2 87.2272 26.2Z" fill="white"/>
<g opacity="0.3" clip-path="url(#clip0_4215_969)">
<path d="M91.968 7.77139L89.6128 5.60566L85.6041 11.6149L82.2984 9.01422L75.2026 18.0857L70.8212 14.9527L64.8234 5.91268L59.4757 2.01191L53.8716 4.41267L48.545 0.343933L44.032 4.7043V28H91.968V7.77139Z" fill="url(#paint0_linear_4215_969)"/>
<path d="M89.6128 5.77917C89.5132 5.77917 89.4326 5.70149 89.4326 5.60566C89.4326 5.50984 89.5132 5.43216 89.6128 5.43216C89.7123 5.43216 89.793 5.50984 89.793 5.60566C89.793 5.70149 89.7123 5.77917 89.6128 5.77917Z" fill="#B7D4FB"/>
<path d="M89.6128 5.94775C89.6831 5.94775 89.7518 5.92769 89.8102 5.8901C89.8686 5.85251 89.9142 5.79909 89.9411 5.73658C89.968 5.67407 89.975 5.60529 89.9613 5.53893C89.9476 5.47257 89.9138 5.41162 89.8641 5.36378C89.8144 5.31593 89.751 5.28335 89.6821 5.27015C89.6132 5.25695 89.5417 5.26373 89.4768 5.28962C89.4118 5.31551 89.3563 5.35936 89.3173 5.41561C89.2782 5.47187 89.2574 5.53801 89.2574 5.60567C89.2574 5.65059 89.2666 5.69507 89.2845 5.73658C89.3023 5.77808 89.3285 5.81579 89.3615 5.84756C89.3945 5.87932 89.4337 5.90452 89.4768 5.92171C89.5199 5.9389 89.5661 5.94775 89.6128 5.94775ZM89.6128 5.31526C89.6724 5.31526 89.7308 5.33229 89.7804 5.3642C89.83 5.39611 89.8687 5.44147 89.8915 5.49453C89.9143 5.5476 89.9203 5.60599 89.9087 5.66232C89.897 5.71865 89.8683 5.7704 89.8261 5.81101C89.7839 5.85163 89.7301 5.87929 89.6716 5.89049C89.6131 5.9017 89.5525 5.89594 89.4973 5.87396C89.4422 5.85198 89.3951 5.81476 89.3619 5.76701C89.3288 5.71925 89.3111 5.6631 89.3111 5.60567C89.3111 5.52865 89.3429 5.45478 89.3995 5.40032C89.456 5.34586 89.5328 5.31526 89.6128 5.31526Z" fill="#B7D4FB"/>
<path d="M85.4238 11.6149C85.4238 11.6493 85.4344 11.6828 85.4542 11.7113C85.474 11.7399 85.5022 11.7621 85.5351 11.7752C85.568 11.7884 85.6043 11.7918 85.6392 11.7851C85.6742 11.7784 85.7063 11.7619 85.7315 11.7376C85.7567 11.7134 85.7739 11.6824 85.7808 11.6488C85.7878 11.6151 85.7842 11.5802 85.7706 11.5485C85.7569 11.5168 85.7338 11.4897 85.7042 11.4707C85.6746 11.4516 85.6397 11.4414 85.6041 11.4414C85.5563 11.4414 85.5104 11.4597 85.4766 11.4923C85.4428 11.5248 85.4238 11.5689 85.4238 11.6149Z" fill="#B7D4FB"/>
<path d="M85.604 11.957C85.6743 11.9569 85.7429 11.9367 85.8013 11.8991C85.8597 11.8614 85.9051 11.8079 85.9319 11.7454C85.9587 11.6829 85.9656 11.6141 85.9519 11.5478C85.9381 11.4815 85.9042 11.4206 85.8545 11.3728C85.8047 11.3251 85.7414 11.2925 85.6725 11.2794C85.6036 11.2662 85.5322 11.273 85.4673 11.299C85.4024 11.3249 85.3469 11.3687 85.3079 11.425C85.2689 11.4812 85.248 11.5473 85.248 11.6149C85.2482 11.7057 85.2858 11.7927 85.3525 11.8569C85.4193 11.921 85.5097 11.957 85.604 11.957ZM85.604 11.3239C85.6638 11.3239 85.7223 11.341 85.772 11.373C85.8217 11.4049 85.8605 11.4504 85.8833 11.5036C85.9062 11.5568 85.9122 11.6153 85.9006 11.6717C85.8889 11.7282 85.8601 11.78 85.8178 11.8207C85.7755 11.8614 85.7217 11.8891 85.663 11.9004C85.6044 11.9116 85.5436 11.9058 85.4884 11.8838C85.4331 11.8618 85.3859 11.8245 85.3527 11.7766C85.3195 11.7288 85.3017 11.6725 85.3017 11.6149C85.3017 11.5378 85.3336 11.4637 85.3903 11.4092C85.447 11.3546 85.5239 11.3239 85.604 11.3239Z" fill="#B7D4FB"/>
<path d="M82.2984 9.18772C82.1988 9.18772 82.1181 9.11004 82.1181 9.01422C82.1181 8.91839 82.1988 8.84071 82.2984 8.84071C82.3979 8.84071 82.4786 8.91839 82.4786 9.01422C82.4786 9.11004 82.3979 9.18772 82.2984 9.18772Z" fill="#B7D4FB"/>
<path d="M82.2984 9.35631C82.3687 9.35631 82.4374 9.33624 82.4958 9.29865C82.5543 9.26107 82.5998 9.20764 82.6267 9.14513C82.6536 9.08262 82.6606 9.01384 82.6469 8.94748C82.6332 8.88112 82.5994 8.82017 82.5497 8.77233C82.5 8.72449 82.4366 8.69191 82.3677 8.67871C82.2988 8.66551 82.2273 8.67228 82.1624 8.69817C82.0975 8.72407 82.042 8.76791 82.0029 8.82417C81.9639 8.88042 81.943 8.94656 81.943 9.01422C81.9432 9.1049 81.9807 9.19181 82.0473 9.25593C82.1139 9.32005 82.2042 9.35614 82.2984 9.35631ZM82.2984 8.72382C82.358 8.72382 82.4164 8.74085 82.466 8.77276C82.5156 8.80467 82.5543 8.85002 82.5771 8.90309C82.5999 8.95615 82.6059 9.01454 82.5943 9.07088C82.5826 9.12721 82.5539 9.17895 82.5117 9.21957C82.4695 9.26018 82.4158 9.28784 82.3572 9.29904C82.2987 9.31025 82.2381 9.3045 82.1829 9.28252C82.1278 9.26054 82.0807 9.22332 82.0475 9.17556C82.0144 9.1278 81.9967 9.07166 81.9967 9.01422C81.9967 8.9372 82.0285 8.86334 82.0851 8.80887C82.1416 8.75441 82.2184 8.72382 82.2984 8.72382Z" fill="#B7D4FB"/>
<path d="M75.2026 18.2592C75.103 18.2592 75.0223 18.1815 75.0223 18.0857C75.0223 17.9898 75.103 17.9122 75.2026 17.9122C75.3021 17.9122 75.3828 17.9898 75.3828 18.0857C75.3828 18.1815 75.3021 18.2592 75.2026 18.2592Z" fill="#B7D4FB"/>
<path d="M75.2026 18.4277C75.2728 18.4277 75.3415 18.4077 75.4 18.3701C75.4584 18.3325 75.504 18.2791 75.5309 18.2166C75.5578 18.1541 75.5648 18.0853 75.5511 18.0189C75.5374 17.9526 75.5035 17.8916 75.4538 17.8438C75.4041 17.7959 75.3408 17.7633 75.2719 17.7501C75.2029 17.7369 75.1315 17.7437 75.0666 17.7696C75.0016 17.7955 74.9461 17.8394 74.9071 17.8956C74.868 17.9519 74.8472 18.018 74.8472 18.0857C74.8472 18.1764 74.8846 18.2634 74.9513 18.3276C75.0179 18.3917 75.1083 18.4277 75.2026 18.4277ZM75.2026 17.7953C75.2622 17.7953 75.3205 17.8123 75.3702 17.8442C75.4198 17.8761 75.4584 17.9215 75.4813 17.9745C75.5041 18.0276 75.5101 18.086 75.4984 18.1423C75.4868 18.1987 75.4581 18.2504 75.4159 18.291C75.3737 18.3316 75.3199 18.3593 75.2614 18.3705C75.2029 18.3817 75.1422 18.3759 75.0871 18.354C75.032 18.332 74.9849 18.2948 74.9517 18.247C74.9186 18.1992 74.9009 18.1431 74.9009 18.0857C74.901 18.0087 74.9329 17.9349 74.9894 17.8805C75.046 17.8261 75.1226 17.7954 75.2026 17.7953Z" fill="#B7D4FB"/>
<path d="M70.8212 15.1232C70.7217 15.1232 70.641 15.0455 70.641 14.9497C70.641 14.8538 70.7217 14.7762 70.8212 14.7762C70.9207 14.7762 71.0014 14.8538 71.0014 14.9497C71.0014 15.0455 70.9207 15.1232 70.8212 15.1232Z" fill="#B7D4FB"/>
<path d="M70.8212 15.2918C70.8917 15.2919 70.9606 15.2719 71.0192 15.2343C71.0779 15.1966 71.1236 15.1431 71.1506 15.0805C71.1777 15.0178 71.1848 14.9489 71.171 14.8823C71.1573 14.8158 71.1234 14.7547 71.0736 14.7067C71.0238 14.6588 70.9603 14.6261 70.8911 14.6129C70.822 14.5997 70.7504 14.6065 70.6853 14.6326C70.6202 14.6586 70.5646 14.7026 70.5256 14.759C70.4865 14.8155 70.4657 14.8818 70.4658 14.9497C70.4662 15.0403 70.5037 15.1271 70.5703 15.1912C70.6369 15.2553 70.7271 15.2914 70.8212 15.2918ZM70.8212 14.6587C70.881 14.6585 70.9395 14.6755 70.9893 14.7074C71.0391 14.7393 71.078 14.7847 71.101 14.8379C71.124 14.891 71.13 14.9496 71.1184 15.0061C71.1068 15.0626 71.0781 15.1145 71.0358 15.1552C70.9936 15.196 70.9397 15.2238 70.8811 15.2351C70.8224 15.2463 70.7616 15.2406 70.7063 15.2186C70.651 15.1966 70.6038 15.1593 70.5705 15.1114C70.5373 15.0635 70.5195 15.0073 70.5195 14.9497C70.5195 14.8726 70.5513 14.7987 70.6079 14.7441C70.6644 14.6895 70.7411 14.6588 70.8212 14.6587Z" fill="#B7D4FB"/>
<path d="M64.8228 6.08556C64.7233 6.08556 64.6426 6.00788 64.6426 5.91206C64.6426 5.81624 64.7233 5.73856 64.8228 5.73856C64.9224 5.73856 65.0031 5.81624 65.0031 5.91206C65.0031 6.00788 64.9224 6.08556 64.8228 6.08556Z" fill="#B7D4FB"/>
<path d="M64.8228 6.25477C64.8932 6.25489 64.9621 6.2349 65.0208 6.19731C65.0794 6.15973 65.1251 6.10625 65.1522 6.04364C65.1792 5.98103 65.1863 5.91211 65.1727 5.84559C65.159 5.77907 65.1252 5.71795 65.0754 5.66996C65.0256 5.62197 64.9622 5.58927 64.8931 5.576C64.8241 5.56272 64.7524 5.56947 64.6873 5.59539C64.6223 5.62131 64.5666 5.66524 64.5275 5.72161C64.4883 5.77798 64.4674 5.84426 64.4674 5.91207C64.4676 6.0028 64.5051 6.08978 64.5717 6.154C64.6383 6.21821 64.7285 6.25444 64.8228 6.25477ZM64.8228 5.62166C64.8826 5.62154 64.9412 5.63852 64.991 5.67045C65.0408 5.70238 65.0797 5.74783 65.1026 5.80103C65.1256 5.85423 65.1316 5.9128 65.12 5.96931C65.1083 6.02582 65.0795 6.07773 65.0372 6.11846C64.9949 6.1592 64.941 6.18693 64.8823 6.19814C64.8236 6.20935 64.7627 6.20353 64.7075 6.18143C64.6522 6.15933 64.605 6.12193 64.5718 6.07398C64.5386 6.02603 64.521 5.96968 64.5211 5.91207C64.5213 5.8351 64.5531 5.76133 64.6097 5.7069C64.6662 5.65247 64.7428 5.62183 64.8228 5.62166Z" fill="#B7D4FB"/>
<path d="M59.477 2.18542C59.3774 2.18542 59.2967 2.10774 59.2967 2.01191C59.2967 1.91609 59.3774 1.83841 59.477 1.83841C59.5765 1.83841 59.6572 1.91609 59.6572 2.01191C59.6572 2.10774 59.5765 2.18542 59.477 2.18542Z" fill="#B7D4FB"/>
<path d="M59.477 2.354C59.5474 2.35412 59.6164 2.33411 59.675 2.2965C59.7336 2.25889 59.7794 2.20537 59.8064 2.14273C59.8334 2.08008 59.8405 2.01112 59.8268 1.94459C59.8131 1.87805 59.7792 1.81693 59.7293 1.76897C59.6795 1.721 59.616 1.68835 59.5469 1.67515C59.4778 1.66195 59.4062 1.66878 59.3411 1.6948C59.276 1.72081 59.2204 1.76483 59.1813 1.82128C59.1423 1.87774 59.1215 1.94408 59.1216 2.01191C59.1218 2.10259 59.1593 2.1895 59.2259 2.25362C59.2925 2.31774 59.3828 2.35383 59.477 2.354ZM59.477 1.72089C59.5368 1.72077 59.5953 1.73773 59.6451 1.76964C59.6949 1.80154 59.7338 1.84695 59.7567 1.90012C59.7797 1.95328 59.7858 2.01181 59.7742 2.06831C59.7626 2.1248 59.7339 2.17671 59.6916 2.21747C59.6494 2.25824 59.5955 2.28601 59.5368 2.29729C59.4782 2.30857 59.4173 2.30284 59.3621 2.28084C59.3068 2.25883 59.2595 2.22153 59.2263 2.17366C59.193 2.12578 59.1753 2.0695 59.1753 2.01191C59.1758 1.93515 59.2078 1.8617 59.2643 1.80754C59.3208 1.75338 59.3972 1.7229 59.477 1.72274V1.72089Z" fill="#B7D4FB"/>
<path d="M53.6927 4.4139C53.6928 4.44819 53.7035 4.48167 53.7234 4.51012C53.7433 4.53857 53.7714 4.56072 53.8044 4.57375C53.8373 4.58679 53.8736 4.59014 53.9085 4.58338C53.9434 4.57661 53.9755 4.56004 54.0006 4.53575C54.0257 4.51146 54.0428 4.48054 54.0497 4.4469C54.0566 4.41326 54.053 4.37841 54.0394 4.34674C54.0257 4.31507 54.0026 4.28801 53.973 4.26897C53.9434 4.24994 53.9085 4.23978 53.8729 4.23978C53.8492 4.23978 53.8257 4.24428 53.8038 4.25304C53.7819 4.2618 53.762 4.27464 53.7452 4.29081C53.7285 4.30699 53.7152 4.32619 53.7062 4.34731C53.6972 4.36843 53.6926 4.39106 53.6927 4.4139Z" fill="#B7D4FB"/>
<path d="M53.8729 4.75599C53.9434 4.75599 54.0122 4.73588 54.0708 4.69819C54.1293 4.66051 54.175 4.60695 54.2019 4.54429C54.2288 4.48164 54.2358 4.4127 54.2221 4.3462C54.2083 4.27971 54.1743 4.21865 54.1244 4.17074C54.0746 4.12284 54.0111 4.09025 53.942 4.0771C53.8729 4.06394 53.8013 4.07082 53.7363 4.09685C53.6712 4.12288 53.6157 4.1669 53.5766 4.22334C53.5376 4.27978 53.5168 4.3461 53.5169 4.4139C53.5171 4.50469 53.5547 4.5917 53.6214 4.65583C53.6882 4.71997 53.7786 4.75599 53.8729 4.75599ZM53.8729 4.12288C53.9327 4.12288 53.9912 4.13995 54.0409 4.17193C54.0906 4.20391 54.1294 4.24936 54.1522 4.30254C54.1751 4.35571 54.1811 4.41423 54.1694 4.47068C54.1578 4.52713 54.129 4.57899 54.0867 4.61969C54.0444 4.66039 53.9906 4.6881 53.9319 4.69933C53.8733 4.71056 53.8125 4.7048 53.7572 4.68277C53.702 4.66074 53.6548 4.62344 53.6216 4.57559C53.5884 4.52773 53.5706 4.47146 53.5706 4.4139C53.5705 4.37563 53.5783 4.33773 53.5934 4.30235C53.6086 4.26697 53.6309 4.23481 53.6589 4.20772C53.687 4.18064 53.7204 4.15914 53.7571 4.14448C53.7938 4.12982 53.8332 4.12227 53.8729 4.12227V4.12288Z" fill="#B7D4FB"/>
<path d="M48.5437 0.515587C48.4442 0.515587 48.3635 0.437907 48.3635 0.342083C48.3635 0.24626 48.4442 0.168579 48.5437 0.168579C48.6432 0.168579 48.7239 0.24626 48.7239 0.342083C48.7239 0.437907 48.6432 0.515587 48.5437 0.515587Z" fill="#B7D4FB"/>
<path d="M48.5437 0.684792C48.6142 0.684914 48.683 0.664918 48.7417 0.627336C48.8003 0.589753 48.846 0.536273 48.8731 0.473664C48.9001 0.411054 48.9073 0.342129 48.8936 0.275611C48.8799 0.209093 48.8461 0.147972 48.7963 0.0999826C48.7466 0.0519933 48.6831 0.019293 48.614 0.00601987C48.545 -0.00725329 48.4734 -0.000502677 48.4083 0.0254174C48.3432 0.0513375 48.2875 0.095262 48.2484 0.151632C48.2092 0.208002 48.1884 0.274285 48.1884 0.342091C48.1884 0.432874 48.2258 0.519949 48.2924 0.5842C48.359 0.648451 48.4494 0.684629 48.5437 0.684792ZM48.5437 0.0516866C48.6036 0.0515649 48.6621 0.068545 48.7119 0.100476C48.7617 0.132407 48.8006 0.177851 48.8235 0.231053C48.8465 0.284255 48.8525 0.34282 48.8409 0.39933C48.8292 0.455839 48.8004 0.50775 48.7581 0.548487C48.7158 0.589224 48.6619 0.616953 48.6032 0.628163C48.5445 0.639372 48.4836 0.633557 48.4284 0.611454C48.3731 0.589352 48.3259 0.551956 48.2927 0.504004C48.2595 0.456051 48.2419 0.399701 48.242 0.342091C48.2422 0.265121 48.274 0.19135 48.3306 0.136924C48.3871 0.0824974 48.4638 0.0518492 48.5437 0.0516866Z" fill="#B7D4FB"/>
<path d="M91.968 7.77139L89.6128 5.60566L85.6041 11.6149L82.2984 9.01422L75.5 11L69.5 13L64.8234 5.91268L59.4757 2.01191L53.8716 4.41267L48.545 0.343933L44.032 4.7043" stroke="#B7D4FB" stroke-linecap="round" stroke-linejoin="round"/>
</g>
<defs>
<linearGradient id="paint0_linear_4215_969" x1="71.5262" y1="1.4311" x2="65.396" y2="29.4232" gradientUnits="userSpaceOnUse">
<stop offset="0.13" stop-color="#B7D4FB" stop-opacity="0.3"/>
<stop offset="0.17" stop-color="#BFD9FB" stop-opacity="0.27"/>
<stop offset="0.3" stop-color="#DBE9FD" stop-opacity="0.15"/>
<stop offset="0.43" stop-color="#EFF5FE" stop-opacity="0.07"/>
<stop offset="0.56" stop-color="#FBFDFF" stop-opacity="0.02"/>
<stop offset="0.68" stop-color="white" stop-opacity="0"/>
</linearGradient>
<clipPath id="clip0_4215_969">
<rect width="48" height="19" fill="white" transform="matrix(-1 0 0 1 92 0)"/>
</clipPath>
</defs>
</svg>
