<svg width="3782" height="765" viewBox="0 0 3782 765" fill="none" xmlns="http://www.w3.org/2000/svg">
<g opacity="0.15" clip-path="url(#clip0_4215_369)">
<path d="M1322.76 157.895C1325.38 157.895 1327.5 155.773 1327.5 153.155C1327.5 150.537 1325.38 148.414 1322.76 148.414C1320.15 148.414 1318.03 150.537 1318.03 153.155C1318.03 155.773 1320.15 157.895 1322.76 157.895Z" fill="#B7D4FB"/>
<path d="M1322.76 162.501C1320.92 162.501 1319.11 161.953 1317.57 160.926C1316.04 159.899 1314.84 158.439 1314.13 156.731C1313.42 155.023 1313.24 153.144 1313.6 151.331C1313.96 149.518 1314.85 147.853 1316.16 146.546C1317.46 145.239 1319.13 144.349 1320.94 143.988C1322.75 143.627 1324.63 143.812 1326.34 144.52C1328.05 145.227 1329.51 146.425 1330.53 147.962C1331.56 149.499 1332.11 151.306 1332.11 153.155C1332.11 154.382 1331.87 155.597 1331.4 156.731C1330.93 157.865 1330.24 158.896 1329.37 159.763C1328.5 160.631 1327.47 161.32 1326.34 161.789C1325.21 162.259 1323.99 162.501 1322.76 162.501ZM1322.76 145.22C1321.2 145.22 1319.66 145.686 1318.36 146.558C1317.05 147.429 1316.04 148.669 1315.44 150.118C1314.84 151.568 1314.68 153.163 1314.98 154.703C1315.29 156.242 1316.05 157.655 1317.16 158.765C1318.26 159.875 1319.68 160.63 1321.22 160.936C1322.76 161.243 1324.35 161.085 1325.8 160.485C1327.25 159.884 1328.49 158.867 1329.36 157.563C1330.23 156.258 1330.7 154.724 1330.7 153.155C1330.7 151.05 1329.86 149.032 1328.37 147.544C1326.88 146.056 1324.87 145.22 1322.76 145.22Z" fill="#B7D4FB"/>
<path d="M1432.9 317.337C1432.9 318.274 1432.62 319.191 1432.1 319.97C1431.58 320.75 1430.84 321.357 1429.97 321.716C1429.11 322.075 1428.15 322.169 1427.24 321.986C1426.32 321.803 1425.47 321.351 1424.81 320.689C1424.15 320.026 1423.7 319.181 1423.51 318.261C1423.33 317.342 1423.42 316.389 1423.78 315.523C1424.14 314.656 1424.75 313.916 1425.53 313.395C1426.31 312.874 1427.22 312.596 1428.16 312.596C1429.42 312.596 1430.62 313.096 1431.51 313.985C1432.4 314.874 1432.9 316.079 1432.9 317.337Z" fill="#B7D4FB"/>
<path d="M1428.16 326.683C1426.31 326.679 1424.51 326.129 1422.97 325.1C1421.44 324.07 1420.24 322.61 1419.54 320.902C1418.84 319.193 1418.65 317.315 1419.02 315.503C1419.38 313.691 1420.27 312.027 1421.58 310.722C1422.88 309.416 1424.55 308.528 1426.36 308.169C1428.17 307.809 1430.05 307.995 1431.76 308.703C1433.46 309.411 1434.92 310.609 1435.95 312.146C1436.97 313.682 1437.52 315.489 1437.52 317.337C1437.52 319.817 1436.53 322.194 1434.77 323.946C1433.02 325.699 1430.64 326.683 1428.16 326.683ZM1428.16 309.385C1426.59 309.385 1425.05 309.852 1423.74 310.725C1422.44 311.599 1421.42 312.841 1420.82 314.294C1420.22 315.747 1420.06 317.345 1420.36 318.888C1420.67 320.43 1421.43 321.847 1422.54 322.959C1423.65 324.071 1425.07 324.828 1426.61 325.135C1428.15 325.442 1429.75 325.284 1431.2 324.682C1432.65 324.081 1433.9 323.061 1434.77 321.754C1435.64 320.446 1436.11 318.909 1436.11 317.337C1436.11 315.228 1435.27 313.205 1433.78 311.714C1432.29 310.223 1430.27 309.385 1428.16 309.385Z" fill="#B7D4FB"/>
<path d="M1515.07 251.022C1517.69 251.022 1519.81 248.899 1519.81 246.281C1519.81 243.663 1517.69 241.541 1515.07 241.541C1512.45 241.541 1510.33 243.663 1510.33 246.281C1510.33 248.899 1512.45 251.022 1515.07 251.022Z" fill="#B7D4FB"/>
<path d="M1515.07 255.628C1513.22 255.628 1511.42 255.079 1509.88 254.052C1508.34 253.025 1507.15 251.566 1506.44 249.858C1505.73 248.15 1505.55 246.271 1505.91 244.458C1506.27 242.645 1507.16 240.98 1508.47 239.672C1509.77 238.365 1511.44 237.475 1513.25 237.115C1515.06 236.754 1516.94 236.939 1518.65 237.646C1520.35 238.354 1521.81 239.552 1522.84 241.089C1523.87 242.626 1524.42 244.433 1524.42 246.281C1524.41 248.759 1523.42 251.133 1521.67 252.885C1519.92 254.637 1517.55 255.623 1515.07 255.628ZM1515.07 238.347C1513.5 238.347 1511.97 238.812 1510.67 239.684C1509.36 240.556 1508.34 241.795 1507.74 243.245C1507.14 244.695 1506.99 246.29 1507.29 247.829C1507.6 249.368 1508.35 250.782 1509.46 251.892C1510.57 253.001 1511.99 253.757 1513.52 254.063C1515.06 254.369 1516.66 254.212 1518.11 253.612C1519.56 253.011 1520.8 251.994 1521.67 250.689C1522.54 249.384 1523 247.85 1523 246.281C1523 244.177 1522.17 242.159 1520.68 240.671C1519.19 239.183 1517.18 238.347 1515.07 238.347Z" fill="#B7D4FB"/>
<path d="M1701.63 498.866C1704.25 498.866 1706.37 496.744 1706.37 494.126C1706.37 491.508 1704.25 489.385 1701.63 489.385C1699.02 489.385 1696.89 491.508 1696.89 494.126C1696.89 496.744 1699.02 498.866 1701.63 498.866Z" fill="#B7D4FB"/>
<path d="M1701.63 503.472C1699.78 503.472 1697.98 502.924 1696.44 501.897C1694.91 500.87 1693.71 499.41 1693 497.703C1692.29 495.995 1692.11 494.115 1692.47 492.302C1692.83 490.489 1693.72 488.824 1695.03 487.517C1696.33 486.21 1698 485.32 1699.81 484.959C1701.62 484.598 1703.5 484.784 1705.21 485.491C1706.92 486.198 1708.37 487.396 1709.4 488.933C1710.43 490.47 1710.98 492.277 1710.98 494.126C1710.98 496.605 1709.99 498.982 1708.24 500.735C1706.49 502.487 1704.11 503.472 1701.63 503.472ZM1701.63 486.192C1700.06 486.192 1698.53 486.657 1697.23 487.529C1695.92 488.401 1694.91 489.64 1694.3 491.09C1693.7 492.539 1693.55 494.135 1693.85 495.674C1694.16 497.213 1694.92 498.627 1696.02 499.736C1697.13 500.846 1698.55 501.602 1700.09 501.908C1701.62 502.214 1703.22 502.057 1704.67 501.456C1706.12 500.856 1707.36 499.839 1708.23 498.534C1709.1 497.229 1709.56 495.695 1709.56 494.126C1709.56 492.023 1708.72 490.007 1707.24 488.52C1705.75 487.033 1703.74 486.196 1701.63 486.192Z" fill="#B7D4FB"/>
<path d="M1816.83 413.186C1819.44 413.186 1821.56 411.064 1821.56 408.446C1821.56 405.828 1819.44 403.706 1816.83 403.706C1814.21 403.706 1812.09 405.828 1812.09 408.446C1812.09 411.064 1814.21 413.186 1816.83 413.186Z" fill="#B7D4FB"/>
<path d="M1816.83 417.792C1814.97 417.796 1813.16 417.249 1811.62 416.221C1810.08 415.194 1808.88 413.732 1808.16 412.02C1807.45 410.308 1807.27 408.424 1807.63 406.607C1807.99 404.789 1808.88 403.119 1810.19 401.808C1811.5 400.498 1813.17 399.606 1814.99 399.245C1816.8 398.884 1818.69 399.071 1820.4 399.782C1822.11 400.493 1823.57 401.695 1824.6 403.238C1825.63 404.78 1826.17 406.593 1826.17 408.446C1826.16 410.922 1825.17 413.294 1823.42 415.045C1821.67 416.796 1819.3 417.783 1816.83 417.792ZM1816.83 400.495C1815.25 400.492 1813.71 400.955 1812.41 401.827C1811.1 402.698 1810.07 403.939 1809.47 405.392C1808.87 406.844 1808.71 408.443 1809.01 409.987C1809.32 411.53 1810.07 412.949 1811.18 414.062C1812.29 415.176 1813.71 415.935 1815.25 416.243C1816.79 416.551 1818.39 416.395 1819.85 415.793C1821.3 415.192 1822.54 414.173 1823.42 412.865C1824.29 411.557 1824.76 410.019 1824.76 408.446C1824.76 406.34 1823.92 404.32 1822.44 402.83C1820.95 401.339 1818.93 400.499 1816.83 400.495Z" fill="#B7D4FB"/>
<path d="M1974.53 166.266C1977.15 166.266 1979.27 164.144 1979.27 161.526C1979.27 158.908 1977.15 156.786 1974.53 156.786C1971.92 156.786 1969.8 158.908 1969.8 161.526C1969.8 164.144 1971.92 166.266 1974.53 166.266Z" fill="#B7D4FB"/>
<path d="M1974.53 170.889C1972.68 170.892 1970.87 170.346 1969.33 169.319C1967.79 168.292 1966.59 166.831 1965.87 165.121C1965.16 163.41 1964.98 161.527 1965.33 159.71C1965.69 157.892 1966.58 156.222 1967.89 154.911C1969.2 153.6 1970.87 152.707 1972.68 152.344C1974.5 151.981 1976.38 152.166 1978.1 152.874C1979.81 153.582 1981.27 154.782 1982.3 156.322C1983.33 157.862 1983.88 159.673 1983.88 161.526C1983.87 164.005 1982.89 166.381 1981.14 168.136C1979.39 169.89 1977.01 170.88 1974.53 170.889ZM1974.53 153.592C1972.96 153.588 1971.42 154.052 1970.11 154.925C1968.8 155.797 1967.78 157.039 1967.18 158.492C1966.57 159.946 1966.41 161.546 1966.72 163.09C1967.03 164.634 1967.78 166.052 1968.9 167.165C1970.01 168.278 1971.43 169.036 1972.97 169.342C1974.51 169.648 1976.11 169.489 1977.57 168.885C1979.02 168.281 1980.26 167.26 1981.13 165.95C1982.01 164.639 1982.47 163.1 1982.47 161.526C1982.46 159.423 1981.62 157.407 1980.14 155.92C1978.65 154.433 1976.64 153.596 1974.53 153.592Z" fill="#B7D4FB"/>
<path d="M2115.08 59.7085C2117.7 59.7085 2119.82 57.5862 2119.82 54.9682C2119.82 52.3501 2117.7 50.2278 2115.08 50.2278C2112.47 50.2278 2110.35 52.3501 2110.35 54.9682C2110.35 57.5862 2112.47 59.7085 2115.08 59.7085Z" fill="#B7D4FB"/>
<path d="M2115.08 64.3144C2113.23 64.3178 2111.42 63.771 2109.88 62.7435C2108.34 61.7159 2107.13 60.2538 2106.42 58.5422C2105.71 56.8306 2105.53 54.9467 2105.89 53.1288C2106.25 51.311 2107.14 49.6411 2108.45 48.3306C2109.76 47.0202 2111.43 46.1281 2113.25 45.7674C2115.06 45.4066 2116.95 45.5934 2118.66 46.3042C2120.37 47.015 2121.83 48.2176 2122.86 49.76C2123.88 51.3023 2124.43 53.1149 2124.43 54.9681C2124.42 57.4456 2123.44 59.8203 2121.69 61.5721C2119.94 63.3239 2117.56 64.31 2115.08 64.3144ZM2115.08 47.0171C2113.51 47.0138 2111.97 47.4773 2110.66 48.3489C2109.35 49.2206 2108.33 50.4612 2107.73 51.9137C2107.13 53.3663 2106.97 54.9655 2107.27 56.509C2107.58 58.0525 2108.33 59.4708 2109.44 60.5844C2110.55 61.6981 2111.97 62.457 2113.51 62.7652C2115.05 63.0733 2116.65 62.9169 2118.11 62.3156C2119.56 61.7143 2120.8 60.6952 2121.68 59.3873C2122.55 58.0794 2123.02 56.5414 2123.02 54.9681C2123 52.8711 2122.16 50.8641 2120.68 49.3844C2119.19 47.9046 2117.18 47.0719 2115.08 47.0675V47.0171Z" fill="#B7D4FB"/>
<path d="M2267.16 120.594C2267.16 121.531 2266.88 122.446 2266.36 123.223C2265.83 124 2265.09 124.605 2264.23 124.961C2263.36 125.318 2262.41 125.409 2261.49 125.224C2260.57 125.039 2259.73 124.587 2259.07 123.923C2258.41 123.259 2257.96 122.415 2257.78 121.496C2257.59 120.577 2257.69 119.624 2258.05 118.759C2258.41 117.894 2259.01 117.155 2259.79 116.634C2260.57 116.114 2261.49 115.837 2262.42 115.837C2263.05 115.837 2263.67 115.96 2264.24 116.199C2264.82 116.438 2265.34 116.789 2265.78 117.231C2266.22 117.673 2266.57 118.198 2266.81 118.775C2267.04 119.352 2267.17 119.97 2267.16 120.594Z" fill="#B7D4FB"/>
<path d="M2262.42 129.94C2260.57 129.94 2258.76 129.391 2257.22 128.361C2255.68 127.331 2254.48 125.868 2253.78 124.156C2253.07 122.444 2252.88 120.561 2253.25 118.744C2253.61 116.928 2254.5 115.259 2255.81 113.95C2257.12 112.642 2258.79 111.751 2260.61 111.392C2262.43 111.032 2264.31 111.22 2266.02 111.932C2267.73 112.643 2269.19 113.846 2270.22 115.387C2271.24 116.929 2271.79 118.741 2271.78 120.594C2271.78 123.074 2270.79 125.451 2269.04 127.204C2267.28 128.956 2264.9 129.94 2262.42 129.94ZM2262.42 112.643C2260.85 112.643 2259.32 113.109 2258.01 113.983C2256.7 114.857 2255.68 116.098 2255.08 117.551C2254.48 119.004 2254.32 120.603 2254.63 122.145C2254.94 123.687 2255.69 125.104 2256.8 126.216C2257.92 127.328 2259.33 128.085 2260.87 128.392C2262.42 128.699 2264.01 128.542 2265.47 127.94C2266.92 127.338 2268.16 126.319 2269.03 125.011C2269.91 123.704 2270.37 122.166 2270.37 120.594C2270.38 119.548 2270.17 118.513 2269.77 117.546C2269.37 116.579 2268.79 115.701 2268.05 114.961C2267.31 114.221 2266.44 113.634 2265.47 113.233C2264.5 112.832 2263.47 112.626 2262.42 112.626V112.643Z" fill="#B7D4FB"/>
<path d="M2402.54 14.0866C2405.16 14.0866 2407.28 11.9643 2407.28 9.34622C2407.28 6.72818 2405.16 4.60583 2402.54 4.60583C2399.92 4.60583 2397.8 6.72818 2397.8 9.34622C2397.8 11.9643 2399.92 14.0866 2402.54 14.0866Z" fill="#B7D4FB"/>
<path d="M2402.54 18.7093C2400.69 18.7127 2398.88 18.1663 2397.33 17.1395C2395.79 16.1127 2394.59 14.6516 2393.88 12.941C2393.17 11.2304 2392.98 9.34728 2393.34 7.52991C2393.7 5.71255 2394.59 4.04263 2395.9 2.7315C2397.21 1.42036 2398.87 0.526943 2400.69 0.164301C2402.51 -0.19834 2404.39 -0.0139039 2406.1 0.69427C2407.81 1.40244 2409.27 2.60252 2410.3 4.14264C2411.33 5.68275 2411.88 7.49368 2411.88 9.34624C2411.88 11.8266 2410.9 14.2056 2409.15 15.961C2407.39 17.7164 2405.02 18.7049 2402.54 18.7093ZM2402.54 1.41198C2400.97 1.40866 2399.43 1.87258 2398.12 2.74497C2396.81 3.61737 2395.79 4.85898 2395.18 6.31253C2394.58 7.76608 2394.42 9.36617 2394.73 10.9101C2395.03 12.454 2395.79 13.8723 2396.9 14.9853C2398.01 16.0983 2399.43 16.8559 2400.98 17.1621C2402.52 17.4684 2404.12 17.3095 2405.57 16.7056C2407.02 16.1018 2408.27 15.08 2409.14 13.7699C2410.01 12.4598 2410.47 10.9202 2410.47 9.34624C2410.47 7.24331 2409.63 5.22778 2408.14 3.74078C2406.66 2.25378 2404.64 1.41642 2402.54 1.41198Z" fill="#B7D4FB"/>
<path d="M1260.84 212.325L1322.76 153.155L1428.16 317.336L1515.07 246.281L1701.63 494.126L1816.83 408.53L1974.52 161.543L2115.12 54.9681L2262.46 120.56L2402.5 9.39661L2521.16 128.528" stroke="#B7D4FB" stroke-linecap="round" stroke-linejoin="round"/>
</g>
<g opacity="0.15" clip-path="url(#clip1_4215_369)">
<path d="M1199.24 157.895C1196.62 157.895 1194.5 155.773 1194.5 153.155C1194.5 150.537 1196.62 148.414 1199.24 148.414C1201.85 148.414 1203.97 150.537 1203.97 153.155C1203.97 155.773 1201.85 157.895 1199.24 157.895Z" fill="#B7D4FB"/>
<path d="M1199.24 162.501C1201.08 162.501 1202.89 161.953 1204.43 160.926C1205.96 159.899 1207.16 158.439 1207.87 156.731C1208.58 155.023 1208.76 153.144 1208.4 151.331C1208.04 149.518 1207.15 147.853 1205.84 146.546C1204.54 145.239 1202.87 144.349 1201.06 143.988C1199.25 143.627 1197.37 143.812 1195.66 144.52C1193.95 145.227 1192.49 146.425 1191.47 147.962C1190.44 149.499 1189.89 151.306 1189.89 153.155C1189.89 154.382 1190.13 155.597 1190.6 156.731C1191.07 157.865 1191.76 158.896 1192.63 159.763C1193.5 160.631 1194.53 161.32 1195.66 161.789C1196.79 162.259 1198.01 162.501 1199.24 162.501ZM1199.24 145.22C1200.8 145.22 1202.34 145.686 1203.64 146.558C1204.95 147.429 1205.96 148.669 1206.56 150.118C1207.16 151.568 1207.32 153.163 1207.02 154.703C1206.71 156.242 1205.95 157.655 1204.84 158.765C1203.74 159.875 1202.32 160.63 1200.78 160.936C1199.24 161.243 1197.65 161.085 1196.2 160.485C1194.75 159.884 1193.51 158.867 1192.64 157.563C1191.77 156.258 1191.3 154.724 1191.3 153.155C1191.3 151.05 1192.14 149.032 1193.63 147.544C1195.12 146.056 1197.13 145.22 1199.24 145.22Z" fill="#B7D4FB"/>
<path d="M1089.1 317.337C1089.1 318.274 1089.38 319.191 1089.9 319.97C1090.42 320.75 1091.16 321.357 1092.03 321.716C1092.89 322.075 1093.85 322.169 1094.76 321.986C1095.68 321.803 1096.53 321.351 1097.19 320.689C1097.85 320.026 1098.3 319.181 1098.49 318.261C1098.67 317.342 1098.58 316.389 1098.22 315.523C1097.86 314.656 1097.25 313.916 1096.47 313.395C1095.69 312.874 1094.78 312.596 1093.84 312.596C1092.58 312.596 1091.38 313.096 1090.49 313.985C1089.6 314.874 1089.1 316.079 1089.1 317.337Z" fill="#B7D4FB"/>
<path d="M1093.84 326.683C1095.69 326.679 1097.49 326.129 1099.03 325.1C1100.56 324.07 1101.76 322.61 1102.46 320.902C1103.16 319.193 1103.35 317.315 1102.98 315.503C1102.62 313.691 1101.73 312.027 1100.42 310.722C1099.12 309.416 1097.45 308.528 1095.64 308.169C1093.83 307.809 1091.95 307.995 1090.24 308.703C1088.54 309.411 1087.08 310.609 1086.05 312.146C1085.03 313.682 1084.48 315.489 1084.48 317.337C1084.48 319.817 1085.47 322.194 1087.23 323.946C1088.98 325.699 1091.36 326.683 1093.84 326.683ZM1093.84 309.385C1095.41 309.385 1096.95 309.852 1098.26 310.725C1099.56 311.599 1100.58 312.841 1101.18 314.294C1101.78 315.747 1101.94 317.345 1101.64 318.888C1101.33 320.43 1100.57 321.847 1099.46 322.959C1098.35 324.071 1096.93 324.828 1095.39 325.135C1093.85 325.442 1092.25 325.284 1090.8 324.682C1089.35 324.081 1088.1 323.061 1087.23 321.754C1086.36 320.446 1085.89 318.909 1085.89 317.337C1085.89 315.228 1086.73 313.205 1088.22 311.714C1089.71 310.223 1091.73 309.385 1093.84 309.385Z" fill="#B7D4FB"/>
<path d="M1006.93 251.022C1004.31 251.022 1002.19 248.899 1002.19 246.281C1002.19 243.663 1004.31 241.541 1006.93 241.541C1009.55 241.541 1011.67 243.663 1011.67 246.281C1011.67 248.899 1009.55 251.022 1006.93 251.022Z" fill="#B7D4FB"/>
<path d="M1006.93 255.628C1008.78 255.628 1010.58 255.079 1012.12 254.052C1013.66 253.025 1014.85 251.566 1015.56 249.858C1016.27 248.15 1016.45 246.271 1016.09 244.458C1015.73 242.645 1014.84 240.98 1013.53 239.672C1012.23 238.365 1010.56 237.475 1008.75 237.115C1006.94 236.754 1005.06 236.939 1003.35 237.646C1001.65 238.354 1000.19 239.552 999.16 241.089C998.133 242.626 997.585 244.433 997.585 246.281C997.589 248.759 998.575 251.133 1000.33 252.885C1002.08 254.637 1004.45 255.623 1006.93 255.628ZM1006.93 238.347C1008.5 238.347 1010.03 238.812 1011.33 239.684C1012.64 240.556 1013.66 241.795 1014.26 243.245C1014.86 244.695 1015.01 246.29 1014.71 247.829C1014.4 249.368 1013.65 250.782 1012.54 251.892C1011.43 253.001 1010.01 253.757 1008.48 254.063C1006.94 254.369 1005.34 254.212 1003.89 253.612C1002.44 253.011 1001.2 251.994 1000.33 250.689C999.462 249.384 998.997 247.85 998.997 246.281C998.997 244.177 999.832 242.159 1001.32 240.671C1002.81 239.183 1004.82 238.347 1006.93 238.347Z" fill="#B7D4FB"/>
<path d="M820.367 498.866C817.75 498.866 815.628 496.744 815.628 494.126C815.628 491.508 817.75 489.385 820.367 489.385C822.984 489.385 825.106 491.508 825.106 494.126C825.106 496.744 822.984 498.866 820.367 498.866Z" fill="#B7D4FB"/>
<path d="M820.367 503.472C822.215 503.472 824.022 502.924 825.558 501.897C827.094 500.87 828.292 499.41 828.999 497.703C829.706 495.995 829.891 494.115 829.531 492.302C829.17 490.489 828.281 488.824 826.974 487.517C825.667 486.21 824.002 485.32 822.19 484.959C820.378 484.598 818.499 484.784 816.792 485.491C815.085 486.198 813.625 487.396 812.599 488.933C811.572 490.47 811.024 492.277 811.024 494.126C811.024 496.605 812.008 498.982 813.761 500.735C815.513 502.487 817.889 503.472 820.367 503.472ZM820.367 486.192C821.936 486.192 823.469 486.657 824.774 487.529C826.078 488.401 827.095 489.64 827.695 491.09C828.295 492.539 828.452 494.135 828.146 495.674C827.84 497.213 827.085 498.627 825.976 499.736C824.866 500.846 823.453 501.602 821.915 501.908C820.376 502.214 818.781 502.057 817.332 501.456C815.883 500.856 814.644 499.839 813.772 498.534C812.901 497.229 812.436 495.695 812.436 494.126C812.44 492.023 813.277 490.007 814.764 488.52C816.25 487.033 818.265 486.196 820.367 486.192Z" fill="#B7D4FB"/>
<path d="M705.174 413.186C702.557 413.186 700.435 411.064 700.435 408.446C700.435 405.828 702.557 403.706 705.174 403.706C707.791 403.706 709.913 405.828 709.913 408.446C709.913 411.064 707.791 413.186 705.174 413.186Z" fill="#B7D4FB"/>
<path d="M705.174 417.792C707.027 417.796 708.839 417.249 710.38 416.221C711.922 415.194 713.125 413.732 713.835 412.02C714.546 410.308 714.732 408.424 714.372 406.607C714.011 404.789 713.119 403.119 711.809 401.808C710.499 400.498 708.83 399.606 707.013 399.245C705.195 398.884 703.312 399.071 701.601 399.782C699.89 400.493 698.428 401.695 697.401 403.238C696.374 404.78 695.827 406.593 695.831 408.446C695.84 410.922 696.827 413.294 698.577 415.045C700.327 416.796 702.699 417.783 705.174 417.792ZM705.174 400.495C706.747 400.492 708.285 400.955 709.594 401.827C710.904 402.698 711.925 403.939 712.529 405.392C713.133 406.844 713.293 408.443 712.989 409.987C712.684 411.53 711.928 412.949 710.817 414.062C709.706 415.176 708.29 415.935 706.748 416.243C705.205 416.551 703.606 416.395 702.153 415.793C700.7 415.192 699.457 414.173 698.583 412.865C697.709 411.557 697.242 410.019 697.242 408.446C697.242 406.34 698.077 404.32 699.564 402.83C701.051 401.339 703.069 400.499 705.174 400.495Z" fill="#B7D4FB"/>
<path d="M547.466 166.266C544.849 166.266 542.727 164.144 542.727 161.526C542.727 158.908 544.849 156.786 547.466 156.786C550.083 156.786 552.205 158.908 552.205 161.526C552.205 164.144 550.083 166.266 547.466 166.266Z" fill="#B7D4FB"/>
<path d="M547.466 170.889C549.318 170.892 551.129 170.346 552.671 169.319C554.212 168.292 555.415 166.831 556.126 165.121C556.837 163.41 557.024 161.527 556.665 159.71C556.306 157.892 555.416 156.222 554.107 154.911C552.799 153.6 551.131 152.707 549.315 152.344C547.499 151.981 545.616 152.166 543.905 152.874C542.194 153.582 540.731 154.782 539.701 156.322C538.672 157.862 538.123 159.673 538.123 161.526C538.127 164.005 539.113 166.381 540.863 168.136C542.614 169.89 544.988 170.88 547.466 170.889ZM547.466 153.592C549.04 153.588 550.579 154.052 551.888 154.925C553.198 155.797 554.219 157.039 554.823 158.492C555.427 159.946 555.585 161.546 555.279 163.09C554.973 164.634 554.216 166.052 553.103 167.165C551.991 168.278 550.573 169.036 549.029 169.342C547.486 169.648 545.886 169.489 544.433 168.885C542.98 168.281 541.739 167.26 540.867 165.95C539.995 164.639 539.531 163.1 539.534 161.526C539.539 159.423 540.376 157.407 541.862 155.92C543.349 154.433 545.364 153.596 547.466 153.592Z" fill="#B7D4FB"/>
<path d="M406.915 59.7085C404.298 59.7085 402.176 57.5862 402.176 54.9682C402.176 52.3501 404.298 50.2278 406.915 50.2278C409.532 50.2278 411.654 52.3501 411.654 54.9682C411.654 57.5862 409.532 59.7085 406.915 59.7085Z" fill="#B7D4FB"/>
<path d="M406.915 64.3144C408.768 64.3178 410.58 63.771 412.122 62.7435C413.663 61.7159 414.866 60.2538 415.576 58.5422C416.287 56.8306 416.474 54.9467 416.113 53.1288C415.752 51.311 414.86 49.6411 413.55 48.3306C412.24 47.0202 410.571 46.1281 408.754 45.7674C406.937 45.4066 405.053 45.5934 403.342 46.3042C401.631 47.015 400.17 48.2176 399.142 49.76C398.115 51.3023 397.569 53.1149 397.572 54.9681C397.576 57.4456 398.562 59.8203 400.314 61.5721C402.065 63.3239 404.439 64.31 406.915 64.3144ZM406.915 47.0171C408.488 47.0138 410.026 47.4773 411.336 48.3489C412.645 49.2206 413.666 50.4612 414.271 51.9137C414.875 53.3663 415.034 54.9655 414.73 56.509C414.425 58.0525 413.669 59.4708 412.558 60.5844C411.447 61.6981 410.031 62.457 408.489 62.7652C406.947 63.0733 405.348 62.9169 403.894 62.3156C402.441 61.7143 401.198 60.6952 400.324 59.3873C399.45 58.0794 398.984 56.5414 398.984 54.9681C398.997 52.8711 399.838 50.8641 401.323 49.3844C402.809 47.9046 404.819 47.0719 406.915 47.0675V47.0171Z" fill="#B7D4FB"/>
<path d="M254.837 120.594C254.84 121.531 255.121 122.446 255.643 123.223C256.166 124 256.907 124.605 257.774 124.961C258.64 125.318 259.592 125.409 260.51 125.224C261.428 125.039 262.271 124.587 262.932 123.923C263.593 123.259 264.043 122.415 264.224 121.496C264.406 120.577 264.311 119.624 263.952 118.759C263.593 117.894 262.985 117.155 262.206 116.634C261.427 116.114 260.512 115.837 259.575 115.837C258.952 115.837 258.334 115.96 257.758 116.199C257.182 116.438 256.659 116.789 256.219 117.231C255.778 117.673 255.43 118.198 255.192 118.775C254.955 119.352 254.834 119.97 254.837 120.594Z" fill="#B7D4FB"/>
<path d="M259.575 129.94C261.427 129.94 263.238 129.391 264.777 128.361C266.317 127.331 267.517 125.868 268.224 124.156C268.932 122.444 269.117 120.561 268.754 118.744C268.392 116.928 267.499 115.259 266.188 113.95C264.877 112.642 263.208 111.751 261.391 111.392C259.574 111.032 257.692 111.22 255.982 111.932C254.272 112.643 252.811 113.846 251.785 115.387C250.758 116.929 250.212 118.741 250.215 120.594C250.22 123.074 251.208 125.451 252.963 127.204C254.718 128.956 257.096 129.94 259.575 129.94ZM259.575 112.643C261.147 112.643 262.684 113.109 263.991 113.983C265.298 114.857 266.317 116.098 266.919 117.551C267.52 119.004 267.678 120.603 267.371 122.145C267.064 123.687 266.307 125.104 265.196 126.216C264.084 127.328 262.668 128.085 261.126 128.392C259.584 128.699 257.986 128.542 256.534 127.94C255.081 127.338 253.84 126.319 252.967 125.011C252.093 123.704 251.627 122.166 251.627 120.594C251.625 119.548 251.829 118.513 252.227 117.546C252.626 116.579 253.211 115.701 253.949 114.961C254.687 114.221 255.564 113.634 256.53 113.233C257.495 112.832 258.53 112.626 259.575 112.626V112.643Z" fill="#B7D4FB"/>
<path d="M119.461 14.0866C116.844 14.0866 114.723 11.9643 114.723 9.34622C114.723 6.72818 116.844 4.60583 119.461 4.60583C122.079 4.60583 124.2 6.72818 124.2 9.34622C124.2 11.9643 122.079 14.0866 119.461 14.0866Z" fill="#B7D4FB"/>
<path d="M119.462 18.7093C121.313 18.7127 123.125 18.1663 124.666 17.1395C126.208 16.1127 127.41 14.6516 128.121 12.941C128.832 11.2304 129.02 9.34728 128.66 7.52991C128.301 5.71255 127.411 4.04263 126.103 2.7315C124.794 1.42036 123.127 0.526943 121.31 0.164301C119.494 -0.19834 117.612 -0.0139039 115.9 0.69427C114.189 1.40244 112.726 2.60252 111.697 4.14264C110.668 5.68275 110.118 7.49368 110.118 9.34624C110.118 11.8266 111.102 14.2056 112.854 15.961C114.606 17.7164 116.982 18.7049 119.462 18.7093ZM119.462 1.41198C121.035 1.40866 122.574 1.87258 123.884 2.74497C125.193 3.61737 126.215 4.85898 126.818 6.31253C127.422 7.76608 127.581 9.36617 127.275 10.9101C126.969 12.454 126.211 13.8723 125.099 14.9853C123.986 16.0983 122.568 16.8559 121.025 17.1621C119.481 17.4684 117.882 17.3095 116.429 16.7056C114.976 16.1018 113.734 15.08 112.862 13.7699C111.99 12.4598 111.527 10.9202 111.53 9.34624C111.534 7.24331 112.371 5.22778 113.858 3.74078C115.344 2.25378 117.359 1.41642 119.462 1.41198Z" fill="#B7D4FB"/>
<path d="M1261.16 212.325L1199.24 153.155L1093.84 317.336L1006.93 246.281L820.367 494.126L705.174 408.53L547.483 161.543L406.882 54.9681L259.542 120.56L119.495 9.39661L0.840199 128.528" stroke="#B7D4FB" stroke-linecap="round" stroke-linejoin="round"/>
</g>
<g opacity="0.15" clip-path="url(#clip2_4215_369)">
<path d="M3719.24 157.895C3716.62 157.895 3714.5 155.773 3714.5 153.155C3714.5 150.537 3716.62 148.414 3719.24 148.414C3721.85 148.414 3723.97 150.537 3723.97 153.155C3723.97 155.773 3721.85 157.895 3719.24 157.895Z" fill="#B7D4FB"/>
<path d="M3719.24 162.501C3721.08 162.501 3722.89 161.953 3724.43 160.926C3725.96 159.899 3727.16 158.439 3727.87 156.731C3728.58 155.023 3728.76 153.144 3728.4 151.331C3728.04 149.518 3727.15 147.853 3725.84 146.546C3724.54 145.239 3722.87 144.349 3721.06 143.988C3719.25 143.627 3717.37 143.812 3715.66 144.52C3713.95 145.227 3712.49 146.425 3711.47 147.962C3710.44 149.499 3709.89 151.306 3709.89 153.155C3709.89 154.382 3710.13 155.597 3710.6 156.731C3711.07 157.865 3711.76 158.896 3712.63 159.763C3713.5 160.631 3714.53 161.32 3715.66 161.789C3716.79 162.259 3718.01 162.501 3719.24 162.501ZM3719.24 145.22C3720.8 145.22 3722.34 145.686 3723.64 146.558C3724.95 147.429 3725.96 148.669 3726.56 150.118C3727.16 151.568 3727.32 153.163 3727.02 154.703C3726.71 156.242 3725.95 157.655 3724.84 158.765C3723.74 159.875 3722.32 160.63 3720.78 160.936C3719.24 161.243 3717.65 161.085 3716.2 160.485C3714.75 159.884 3713.51 158.867 3712.64 157.563C3711.77 156.258 3711.3 154.724 3711.3 153.155C3711.3 151.05 3712.14 149.032 3713.63 147.544C3715.11 146.056 3717.13 145.22 3719.24 145.22Z" fill="#B7D4FB"/>
<path d="M3609.1 317.337C3609.1 318.274 3609.38 319.191 3609.9 319.97C3610.42 320.75 3611.16 321.357 3612.03 321.716C3612.89 322.075 3613.84 322.169 3614.76 321.986C3615.68 321.803 3616.53 321.351 3617.19 320.689C3617.85 320.026 3618.3 319.181 3618.49 318.261C3618.67 317.342 3618.58 316.389 3618.22 315.523C3617.86 314.656 3617.25 313.916 3616.47 313.395C3615.69 312.874 3614.78 312.596 3613.84 312.596C3612.58 312.596 3611.38 313.096 3610.49 313.985C3609.6 314.874 3609.1 316.079 3609.1 317.337Z" fill="#B7D4FB"/>
<path d="M3613.84 326.683C3615.69 326.679 3617.49 326.129 3619.03 325.1C3620.56 324.07 3621.76 322.61 3622.46 320.902C3623.16 319.193 3623.35 317.315 3622.98 315.503C3622.62 313.691 3621.73 312.027 3620.42 310.722C3619.12 309.416 3617.45 308.528 3615.64 308.169C3613.83 307.809 3611.95 307.995 3610.24 308.703C3608.54 309.411 3607.08 310.609 3606.05 312.146C3605.03 313.682 3604.48 315.489 3604.48 317.337C3604.48 319.817 3605.47 322.194 3607.23 323.946C3608.98 325.699 3611.36 326.683 3613.84 326.683ZM3613.84 309.385C3615.41 309.385 3616.95 309.852 3618.26 310.725C3619.56 311.599 3620.58 312.841 3621.18 314.294C3621.78 315.747 3621.94 317.345 3621.64 318.888C3621.33 320.43 3620.57 321.847 3619.46 322.959C3618.35 324.071 3616.93 324.828 3615.39 325.135C3613.85 325.442 3612.25 325.284 3610.8 324.682C3609.35 324.081 3608.1 323.061 3607.23 321.754C3606.36 320.446 3605.89 318.909 3605.89 317.337C3605.89 315.228 3606.73 313.205 3608.22 311.714C3609.71 310.223 3611.73 309.385 3613.84 309.385Z" fill="#B7D4FB"/>
<path d="M3526.93 251.022C3524.31 251.022 3522.19 248.899 3522.19 246.281C3522.19 243.663 3524.31 241.541 3526.93 241.541C3529.55 241.541 3531.67 243.663 3531.67 246.281C3531.67 248.899 3529.55 251.022 3526.93 251.022Z" fill="#B7D4FB"/>
<path d="M3526.93 255.628C3528.78 255.628 3530.58 255.079 3532.12 254.052C3533.66 253.025 3534.85 251.566 3535.56 249.858C3536.27 248.15 3536.45 246.271 3536.09 244.458C3535.73 242.645 3534.84 240.98 3533.53 239.672C3532.23 238.365 3530.56 237.475 3528.75 237.115C3526.94 236.754 3525.06 236.939 3523.35 237.646C3521.65 238.354 3520.19 239.552 3519.16 241.089C3518.13 242.626 3517.58 244.433 3517.58 246.281C3517.59 248.759 3518.58 251.133 3520.33 252.885C3522.08 254.637 3524.45 255.623 3526.93 255.628ZM3526.93 238.347C3528.5 238.347 3530.03 238.812 3531.33 239.684C3532.64 240.556 3533.66 241.795 3534.26 243.245C3534.86 244.695 3535.01 246.29 3534.71 247.829C3534.4 249.368 3533.65 250.782 3532.54 251.892C3531.43 253.001 3530.01 253.757 3528.48 254.063C3526.94 254.369 3525.34 254.212 3523.89 253.612C3522.44 253.011 3521.2 251.994 3520.33 250.689C3519.46 249.384 3519 247.85 3519 246.281C3519 244.177 3519.83 242.159 3521.32 240.671C3522.81 239.183 3524.82 238.347 3526.93 238.347Z" fill="#B7D4FB"/>
<path d="M3340.37 498.866C3337.75 498.866 3335.63 496.744 3335.63 494.126C3335.63 491.508 3337.75 489.385 3340.37 489.385C3342.98 489.385 3345.11 491.508 3345.11 494.126C3345.11 496.744 3342.98 498.866 3340.37 498.866Z" fill="#B7D4FB"/>
<path d="M3340.37 503.472C3342.21 503.472 3344.02 502.924 3345.56 501.897C3347.09 500.87 3348.29 499.41 3349 497.703C3349.71 495.995 3349.89 494.115 3349.53 492.302C3349.17 490.489 3348.28 488.824 3346.97 487.517C3345.67 486.21 3344 485.32 3342.19 484.959C3340.38 484.598 3338.5 484.784 3336.79 485.491C3335.08 486.198 3333.63 487.396 3332.6 488.933C3331.57 490.47 3331.02 492.277 3331.02 494.126C3331.02 496.605 3332.01 498.982 3333.76 500.735C3335.51 502.487 3337.89 503.472 3340.37 503.472ZM3340.37 486.192C3341.94 486.192 3343.47 486.657 3344.77 487.529C3346.08 488.401 3347.09 489.64 3347.69 491.09C3348.3 492.539 3348.45 494.135 3348.15 495.674C3347.84 497.213 3347.08 498.627 3345.98 499.736C3344.87 500.846 3343.45 501.602 3341.91 501.908C3340.38 502.214 3338.78 502.057 3337.33 501.456C3335.88 500.856 3334.64 499.839 3333.77 498.534C3332.9 497.229 3332.44 495.695 3332.44 494.126C3332.44 492.023 3333.28 490.007 3334.76 488.52C3336.25 487.033 3338.26 486.196 3340.37 486.192Z" fill="#B7D4FB"/>
<path d="M3225.17 413.186C3222.56 413.186 3220.44 411.064 3220.44 408.446C3220.44 405.828 3222.56 403.706 3225.17 403.706C3227.79 403.706 3229.91 405.828 3229.91 408.446C3229.91 411.064 3227.79 413.186 3225.17 413.186Z" fill="#B7D4FB"/>
<path d="M3225.17 417.792C3227.03 417.796 3228.84 417.249 3230.38 416.221C3231.92 415.194 3233.12 413.732 3233.84 412.02C3234.55 410.308 3234.73 408.424 3234.37 406.607C3234.01 404.789 3233.12 403.119 3231.81 401.808C3230.5 400.498 3228.83 399.606 3227.01 399.245C3225.2 398.884 3223.31 399.071 3221.6 399.782C3219.89 400.493 3218.43 401.695 3217.4 403.238C3216.37 404.78 3215.83 406.593 3215.83 408.446C3215.84 410.922 3216.83 413.294 3218.58 415.045C3220.33 416.796 3222.7 417.783 3225.17 417.792ZM3225.17 400.495C3226.75 400.492 3228.29 400.955 3229.59 401.827C3230.9 402.698 3231.93 403.939 3232.53 405.392C3233.13 406.844 3233.29 408.443 3232.99 409.987C3232.68 411.53 3231.93 412.949 3230.82 414.062C3229.71 415.176 3228.29 415.935 3226.75 416.243C3225.21 416.551 3223.61 416.395 3222.15 415.793C3220.7 415.192 3219.46 414.173 3218.58 412.865C3217.71 411.557 3217.24 410.019 3217.24 408.446C3217.24 406.34 3218.08 404.32 3219.56 402.83C3221.05 401.339 3223.07 400.499 3225.17 400.495Z" fill="#B7D4FB"/>
<path d="M3067.47 166.266C3064.85 166.266 3062.73 164.144 3062.73 161.526C3062.73 158.908 3064.85 156.786 3067.47 156.786C3070.08 156.786 3072.2 158.908 3072.2 161.526C3072.2 164.144 3070.08 166.266 3067.47 166.266Z" fill="#B7D4FB"/>
<path d="M3067.47 170.889C3069.32 170.892 3071.13 170.346 3072.67 169.319C3074.21 168.292 3075.41 166.831 3076.13 165.121C3076.84 163.41 3077.02 161.527 3076.66 159.71C3076.31 157.892 3075.42 156.222 3074.11 154.911C3072.8 153.6 3071.13 152.707 3069.32 152.344C3067.5 151.981 3065.62 152.166 3063.9 152.874C3062.19 153.582 3060.73 154.782 3059.7 156.322C3058.67 157.862 3058.12 159.673 3058.12 161.526C3058.13 164.005 3059.11 166.381 3060.86 168.136C3062.61 169.89 3064.99 170.88 3067.47 170.889ZM3067.47 153.592C3069.04 153.588 3070.58 154.052 3071.89 154.925C3073.2 155.797 3074.22 157.039 3074.82 158.492C3075.43 159.946 3075.59 161.546 3075.28 163.09C3074.97 164.634 3074.22 166.052 3073.1 167.165C3071.99 168.278 3070.57 169.036 3069.03 169.342C3067.49 169.648 3065.89 169.489 3064.43 168.885C3062.98 168.281 3061.74 167.26 3060.87 165.95C3059.99 164.639 3059.53 163.1 3059.53 161.526C3059.54 159.423 3060.38 157.407 3061.86 155.92C3063.35 154.433 3065.36 153.596 3067.47 153.592Z" fill="#B7D4FB"/>
<path d="M2926.91 59.7085C2924.3 59.7085 2922.18 57.5862 2922.18 54.9682C2922.18 52.3501 2924.3 50.2278 2926.91 50.2278C2929.53 50.2278 2931.65 52.3501 2931.65 54.9682C2931.65 57.5862 2929.53 59.7085 2926.91 59.7085Z" fill="#B7D4FB"/>
<path d="M2926.91 64.3144C2928.77 64.3178 2930.58 63.771 2932.12 62.7435C2933.66 61.7159 2934.87 60.2538 2935.58 58.5422C2936.29 56.8306 2936.47 54.9467 2936.11 53.1288C2935.75 51.311 2934.86 49.6411 2933.55 48.3306C2932.24 47.0202 2930.57 46.1281 2928.75 45.7674C2926.94 45.4066 2925.05 45.5934 2923.34 46.3042C2921.63 47.015 2920.17 48.2176 2919.14 49.76C2918.12 51.3023 2917.57 53.1149 2917.57 54.9681C2917.58 57.4456 2918.56 59.8203 2920.31 61.5721C2922.06 63.3239 2924.44 64.31 2926.91 64.3144ZM2926.91 47.0171C2928.49 47.0138 2930.03 47.4773 2931.34 48.3489C2932.64 49.2206 2933.67 50.4612 2934.27 51.9137C2934.87 53.3663 2935.03 54.9655 2934.73 56.509C2934.42 58.0525 2933.67 59.4708 2932.56 60.5844C2931.45 61.6981 2930.03 62.457 2928.49 62.7652C2926.95 63.0733 2925.35 62.9169 2923.89 62.3156C2922.44 61.7143 2921.2 60.6952 2920.32 59.3873C2919.45 58.0794 2918.98 56.5414 2918.98 54.9681C2919 52.8711 2919.84 50.8641 2921.32 49.3844C2922.81 47.9046 2924.82 47.0719 2926.91 47.0675V47.0171Z" fill="#B7D4FB"/>
<path d="M2774.84 120.594C2774.84 121.531 2775.12 122.446 2775.64 123.223C2776.17 124 2776.91 124.605 2777.77 124.961C2778.64 125.318 2779.59 125.409 2780.51 125.224C2781.43 125.039 2782.27 124.587 2782.93 123.923C2783.59 123.259 2784.04 122.415 2784.22 121.496C2784.41 120.577 2784.31 119.624 2783.95 118.759C2783.59 117.894 2782.99 117.155 2782.21 116.634C2781.43 116.114 2780.51 115.837 2779.58 115.837C2778.95 115.837 2778.33 115.96 2777.76 116.199C2777.18 116.438 2776.66 116.789 2776.22 117.231C2775.78 117.673 2775.43 118.198 2775.19 118.775C2774.96 119.352 2774.83 119.97 2774.84 120.594Z" fill="#B7D4FB"/>
<path d="M2779.58 129.94C2781.43 129.94 2783.24 129.391 2784.78 128.361C2786.32 127.331 2787.52 125.868 2788.22 124.156C2788.93 122.444 2789.12 120.561 2788.75 118.744C2788.39 116.928 2787.5 115.259 2786.19 113.95C2784.88 112.642 2783.21 111.751 2781.39 111.392C2779.57 111.032 2777.69 111.22 2775.98 111.932C2774.27 112.643 2772.81 113.846 2771.78 115.387C2770.76 116.929 2770.21 118.741 2770.22 120.594C2770.22 123.074 2771.21 125.451 2772.96 127.204C2774.72 128.956 2777.1 129.94 2779.58 129.94ZM2779.58 112.643C2781.15 112.643 2782.68 113.109 2783.99 113.983C2785.3 114.857 2786.32 116.098 2786.92 117.551C2787.52 119.004 2787.68 120.603 2787.37 122.145C2787.06 123.687 2786.31 125.104 2785.2 126.216C2784.08 127.328 2782.67 128.085 2781.13 128.392C2779.58 128.699 2777.99 128.542 2776.53 127.94C2775.08 127.338 2773.84 126.319 2772.97 125.011C2772.09 123.704 2771.63 122.166 2771.63 120.594C2771.62 119.548 2771.83 118.513 2772.23 117.546C2772.63 116.579 2773.21 115.701 2773.95 114.961C2774.69 114.221 2775.56 113.634 2776.53 113.233C2777.5 112.832 2778.53 112.626 2779.58 112.626V112.643Z" fill="#B7D4FB"/>
<path d="M2639.46 14.0866C2636.84 14.0866 2634.72 11.9643 2634.72 9.34622C2634.72 6.72818 2636.84 4.60583 2639.46 4.60583C2642.08 4.60583 2644.2 6.72818 2644.2 9.34622C2644.2 11.9643 2642.08 14.0866 2639.46 14.0866Z" fill="#B7D4FB"/>
<path d="M2639.46 18.7093C2641.31 18.7127 2643.12 18.1663 2644.67 17.1395C2646.21 16.1127 2647.41 14.6516 2648.12 12.941C2648.83 11.2304 2649.02 9.34728 2648.66 7.52991C2648.3 5.71255 2647.41 4.04263 2646.1 2.7315C2644.79 1.42036 2643.13 0.526943 2641.31 0.164301C2639.49 -0.19834 2637.61 -0.0139039 2635.9 0.69427C2634.19 1.40244 2632.73 2.60252 2631.7 4.14264C2630.67 5.68275 2630.12 7.49368 2630.12 9.34624C2630.12 11.8266 2631.1 14.2056 2632.85 15.961C2634.61 17.7164 2636.98 18.7049 2639.46 18.7093ZM2639.46 1.41198C2641.03 1.40866 2642.57 1.87258 2643.88 2.74497C2645.19 3.61737 2646.21 4.85898 2646.82 6.31253C2647.42 7.76608 2647.58 9.36617 2647.27 10.9101C2646.97 12.454 2646.21 13.8723 2645.1 14.9853C2643.99 16.0983 2642.57 16.8559 2641.02 17.1621C2639.48 17.4684 2637.88 17.3095 2636.43 16.7056C2634.98 16.1018 2633.73 15.08 2632.86 13.7699C2631.99 12.4598 2631.53 10.9202 2631.53 9.34624C2631.53 7.24331 2632.37 5.22778 2633.86 3.74078C2635.34 2.25378 2637.36 1.41642 2639.46 1.41198Z" fill="#B7D4FB"/>
<path d="M3781.16 212.325L3719.24 153.155L3613.84 317.336L3526.93 246.281L3340.37 494.126L3225.17 408.53L3067.48 161.543L2926.88 54.9681L2779.54 120.56L2639.49 9.39661L2520.84 128.528" stroke="#B7D4FB" stroke-linecap="round" stroke-linejoin="round"/>
</g>
<defs>
<clipPath id="clip0_4215_369">
<rect width="1262" height="765" fill="white" transform="translate(1260)"/>
</clipPath>
<clipPath id="clip1_4215_369">
<rect width="1262" height="765" fill="white" transform="matrix(-1 0 0 1 1262 0)"/>
</clipPath>
<clipPath id="clip2_4215_369">
<rect width="1262" height="765" fill="white" transform="matrix(-1 0 0 1 3782 0)"/>
</clipPath>
</defs>
</svg>
