<svg width="1920" height="73" viewBox="0 0 1920 73" fill="none" xmlns="http://www.w3.org/2000/svg">
  <path d="M0 67.7016C2.42424 66.4944 9.69698 54.4218 9.69698 51.2024C9.69698 47.9831 13.7374 65.2872 16.9697 66.4944C20.202 67.7017 28.2828 59.2509 29.495 58.0436C30.7071 56.8363 40.4041 68.5065 41.6162 68.5065C42.8283 68.5065 45.6566 58.0436 45.6566 58.0436C45.6566 58.0436 52.1212 71.3234 54.1414 69.3113C56.1616 67.2992 66.2626 45.1661 66.2626 45.1661C66.2626 45.1661 72.7273 67.7017 74.7475 62.8727C76.7677 58.0436 84.4444 43.5565 85.2525 41.1419C86.0606 38.7274 91.7172 68.5066 92.9293 64.8848C94.1414 61.263 103.434 42.3493 104.242 35.9105C105.051 29.4718 111.919 64.4823 113.535 64.4823C115.152 64.4823 125.253 40.3371 125.253 35.1056C125.253 29.8742 130.909 64.8848 132.929 64.8848C134.95 64.8848 143.434 42.3493 144.242 35.9105C145.051 29.4718 149.091 58.8485 150.707 60.8606C152.323 62.8727 155.152 56.4339 157.172 54.4219C159.192 52.4098 160.808 61.2629 162.828 61.2629C164.849 61.2629 171.313 48.7879 171.313 45.1661C171.313 41.5444 176.97 64.0799 178.99 62.4702C181.01 60.8606 191.515 16.5944 191.515 10.1557C191.515 3.71701 193.131 58.446 195.96 62.4702C198.788 66.4944 211.717 20.6186 211.313 8.94839C210.909 -2.72177 215.758 63.275 217.778 63.275C219.798 63.275 237.172 27.8621 234.747 5.32664C232.323 -17.2088 248.081 66.092 248.081 66.092C248.081 66.092 261.818 20.2162 261.414 7.74118C261.01 -4.73382 268.283 74.1403 271.919 67.2992C275.556 60.4581 279.596 51.2025 280.808 38.7275C282.02 26.2525 284.848 18.6065 288.485 21.4234C292.121 24.2404 296.566 41.5444 296.566 45.971C296.566 50.3976 303.03 67.2992 308.687 65.6895C314.343 64.0799 320.404 60.8605 322.424 56.0315C324.444 51.2025 338.586 57.6412 341.414 64.0799C344.242 70.5186 350.707 68.5066 351.919 64.8848C353.131 61.263 359.596 61.263 360.404 64.8848C361.212 68.5066 365.657 65.2872 368.889 58.0436C372.121 50.8001 378.586 54.0194 380.202 60.4581C381.818 66.8969 389.899 67.2992 391.515 61.2629C393.131 55.2266 398.384 60.0557 402.828 68.1041C407.273 76.1525 410.909 70.1162 411.717 64.4823C412.525 58.8485 414.95 59.2509 418.182 58.8485C421.414 58.4461 425.455 60.8605 426.263 64.0799C427.071 67.2993 431.515 69.7137 433.535 69.7137C435.556 69.7137 441.212 68.5065 441.616 59.2508C442.02 49.9952 444.444 33.496 445.253 28.2646C446.061 23.0331 452.525 25.0452 456.162 45.971C459.798 66.8968 463.03 68.9089 465.455 68.1041C467.879 67.2992 475.152 62.0678 475.96 54.4219C476.768 46.7759 480 45.1662 485.657 52.4098C491.313 59.6533 500.606 68.9089 507.071 67.7016C513.535 66.4944 511.919 66.8968 514.747 60.0557C517.576 53.2146 522.828 62.8727 525.253 66.8969C527.677 70.9211 530.505 68.104 533.737 63.275C536.97 58.446 536.97 56.4339 538.586 58.0436C540.202 59.6533 549.899 60.0557 549.899 56.0315C549.899 52.0073 554.748 57.2388 555.556 60.4581C556.364 63.6775 560.808 50.3976 561.212 37.1177C561.616 23.8379 567.677 39.9347 568.485 41.1419C569.293 42.3492 573.737 53.6169 574.949 45.1661C576.162 36.7153 579.798 23.4355 580.202 21.021C580.606 18.6065 582.222 21.8259 584.242 30.6791C586.263 39.5324 593.939 56.4339 599.596 37.1177C605.253 17.8016 607.273 12.5702 607.677 8.94839C608.081 5.32661 612.929 54.4218 614.95 55.2266C616.97 56.0315 620.606 60.8605 623.838 21.4234C625.5 8.94839 627.879 21 627.879 21C627.879 21 629.899 52.0073 633.131 55.6291C636.364 59.2508 639.596 51.6049 642.828 35.5081C646.061 19.4113 648.081 7.33874 652.121 7.33874C656.162 7.33874 657.374 24.2404 657.778 31.8863C658.182 39.5323 661.414 60.4581 661.414 60.4581L667.071 22.6307C667.071 22.6307 673.535 -4.73377 677.576 20.6187C681.616 45.9711 678.384 62.4702 680 63.275C681.616 64.0798 686.869 72.9331 687.677 54.0194C688.485 35.1057 690.101 17.8017 690.101 17.8017C690.101 17.8017 693.737 0.0951614 697.374 16.9968C701.01 33.8984 704.647 41.1419 705.859 41.1419C707.071 41.1419 709.091 33.8984 711.111 21.8259C713.131 9.75328 720 2.10733 722.424 14.1799C724.848 26.2525 725.253 60.8605 726.061 63.275C726.869 65.6895 730.909 70.1162 733.737 66.4944C736.566 62.8727 742.626 56.8364 745.051 58.8485C747.475 60.8606 747.475 67.7016 756.768 65.6895C766.061 63.6774 770.909 56.4339 776.97 61.2629C783.03 66.0919 792.727 69.3113 798.384 67.2992C804.04 65.2871 806.465 64.4823 810.505 65.6895C814.546 66.8968 827.071 68.1041 831.111 66.8969C835.152 65.6896 841.616 65.2872 844.849 66.8969C848.081 68.5066 856.566 69.3113 860.202 67.2992C863.838 65.2871 870.303 65.6895 872.323 67.2992C874.343 68.9089 883.232 68.909 885.657 66.8969C888.081 64.8848 896.566 67.2992 898.586 67.7016C900.606 68.1041 918.788 68.1041 918.788 68.1041C918.788 68.1041 928.889 68.9089 930.101 67.7016C931.313 66.4944 937.374 66.092 940.202 68.1041C943.03 70.1162 951.111 70.5186 953.535 68.1041C955.96 65.6896 968.081 66.8969 970.101 68.5065C972.121 70.1162 985.051 70.5186 986.667 68.1041C988.283 65.6896 1000 65.6895 1003.23 67.7016C1006.46 69.7137 1014.95 70.9211 1018.59 68.909C1022.22 66.8969 1029.9 66.0919 1033.54 67.2992C1037.17 68.5065 1044.44 71.3235 1049.29 68.909C1054.14 66.4945 1065.86 66.8969 1070.71 68.5065C1075.56 70.1162 1089.7 68.5065 1089.7 68.5065H1610.1C1610.1 68.5065 1618.99 67.7017 1623.43 66.8969C1627.88 66.092 1637.17 66.8968 1642.02 68.1041C1646.87 69.3113 1674.75 68.5065 1674.75 68.5065H1708.69C1708.69 68.5065 1720.4 58.8484 1723.23 53.617C1726.06 48.3855 1734.55 46.3734 1737.37 55.6291C1740.2 64.8847 1740.2 68.5065 1759.19 68.5065H1815.76C1815.76 68.5065 1823.03 57.2388 1825.86 58.0436C1828.69 58.8484 1835.15 67.2993 1836.36 68.5065C1837.58 69.7138 1847.27 68.5065 1848.08 68.1041C1848.89 67.7017 1850.1 67.7016 1850.91 69.3113C1851.72 70.921 1855.76 72.5307 1857.37 68.909C1858.99 65.2872 1867.47 56.0316 1869.49 58.8485C1871.52 61.6654 1875.56 72.5307 1877.98 70.5186C1880.4 68.5065 1884.85 57.6411 1886.87 47.1782C1888.89 36.7153 1889.29 31.4839 1890.51 39.9347C1891.72 48.3855 1893.33 68.1041 1896.57 67.7016C1899.8 67.2992 1907.07 62.4702 1909.09 52.4098C1911.11 42.3493 1913.13 36.313 1913.54 32.2888C1913.94 28.2646 1919.38 51.4879 1921 53.5" stroke="#3BD671" stroke-opacity="0.6" stroke-width="1.5" stroke-miterlimit="10" stroke-linecap="round" stroke-linejoin="round" />
</svg>